<svg id="eNJFvsYeaxr1" xmlns="http://www.w3.org/2000/svg" xmlns:xlink="http://www.w3.org/1999/xlink" viewBox="0 0 150 150" shape-rendering="geometricPrecision" text-rendering="geometricPrecision" project-id="e0a33e5389434b33b3ed12955db5401c" export-id="8d6e190633cb4af99af65c32746bf7b8" cached="false"><defs><path id="eNJFvsYeaxr2" d="M167.026,671.594c0,23.428,6.046,42.419-34.325,42.419s-34.326-18.991-34.326-42.419s14.938-42.42,34.326-42.42s34.325,18.992,34.325,42.42Z"/><path id="eNJFvsYeaxr9" d="M168.377,325.309c0-19.607-15.876-35.504-35.476-35.539v-.003c-.012,0-.023.001-.034.001-.012,0-.022-.001-.034-.001v.003c-.016,0-.033,0-.049,0s-.034,0-.05,0v-.003c-.013,0-.023.001-.034.001-.012,0-.024-.001-.035-.001v.003c-19.599.035-35.476,15.933-35.476,35.539c0,.464-8.54,10.097-2.705,21.603c3.227,6.362,21.03,13.161,37.994,13.348c17.985.198,35.182-6.602,38.604-13.348c5.835-11.506-2.705-21.139-2.705-21.603Z"/></defs><g transform="matrix(1.538477 0 0 1.372494-77.014819-1.606677)"><g display="none" transform="translate(162.147753-637.640915)"><g><path d="M121.088,622.58c3.055,13.784,1.837,25.779-2.721,26.789-4.559,1.01-10.729-9.347-13.785-23.133-3.055-13.786-1.837-25.779,2.722-26.79c4.559-1.008,10.731,9.347,13.784,23.134Z" fill="#e0dcd3"/><path d="M119.359,622.962c2.415,10.896,1.451,20.374-2.152,21.174-3.602.798-8.481-7.388-10.895-18.282-2.415-10.896-1.451-20.375,2.151-21.172c3.604-.799,8.48,7.384,10.896,18.28Z" fill="#313439"/></g><g><path d="M143.199,622.58c-3.053,13.784-1.835,25.779,2.724,26.789c4.558,1.01,10.729-9.347,13.784-23.133s1.837-25.779-2.722-26.79c-4.56-1.008-10.73,9.347-13.786,23.134Z" fill="#e0dcd3"/><path d="M144.932,622.962c-2.415,10.896-1.452,20.374,2.15,21.174c3.603.798,8.48-7.388,10.894-18.282c2.414-10.896,1.451-20.375-2.151-21.172-3.602-.799-8.48,7.384-10.893,18.28Z" fill="#313439"/></g><path d="M167.026,671.594c0,27.271,9.499,42.419-34.325,42.419-43.823,0-34.326-17.781-34.326-42.419c0-23.428,14.938-42.42,34.326-42.42s34.325,18.992,34.325,42.42Z" fill="#f7f1e6"/><ellipse rx="34.812" ry="18.431" transform="translate(132.994 698.508)" fill="#313439"/><g><path d="M124.928,663.269c0,2.585-2.095,4.682-4.681,4.682s-4.68-2.097-4.68-4.682c0-2.586,2.095-4.681,4.68-4.681c2.585.001,4.681,2.096,4.681,4.681Z" fill="#313439"/><path d="M120.572,659.499c0,1.65-1.337,2.989-2.991,2.989-1.651,0-2.989-1.339-2.989-2.989c0-1.652,1.338-2.99,2.989-2.99c1.653,0,2.991,1.338,2.991,2.99Z" fill="#fff"/></g><g><path d="M140.403,663.269c0,2.585,2.094,4.682,4.681,4.682c2.584,0,4.68-2.097,4.68-4.682c0-2.586-2.096-4.681-4.68-4.681-2.587.001-4.681,2.096-4.681,4.681Z" fill="#313439"/><path d="M144.759,659.498c0,1.651,1.338,2.99,2.988,2.99c1.652,0,2.992-1.339,2.992-2.99s-1.34-2.989-2.992-2.989c-1.65,0-2.988,1.338-2.988,2.989Z" fill="#fff"/></g><g><g clip-path="url(#eNJFvsYeaxr78)"><g><path d="M177.33,667.56c0,0-.092.092-.258.231-.165.128-.413.355-.717.567-.612.445-1.473.977-2.478,1.416-1.006.441-2.158.8-3.364.976-.302.046-.606.076-.914.104-.301.023-.579.063-.869.074-.576.031-1.152.021-1.725-.033-.572-.059-1.141-.16-1.7-.298-.544-.086-1.081-.227-1.606-.403-.526-.176-1.041-.394-1.539-.644-.525-.222-1.042-.483-1.513-.743-.945-.536-1.746-1.15-2.314-1.653-.283-.242-.509-.492-.662-.637-.154-.155-.237-.256-.237-.256s.073-.108.212-.275c.139-.157.342-.427.605-.692.525-.552,1.285-1.234,2.212-1.852.466-.297.963-.616,1.511-.867.575-.237,1.192-.442,1.838-.605.646-.162,1.32-.29,2.005-.361.666-.024,1.339.003,2.011.065.671.069,1.337.182,1.986.334.32.077.651.164.949.264.289.11.574.224.853.351c1.114.499,2.127,1.159,2.978,1.86.851.698,1.537,1.446,2.008,2.042.236.288.414.574.539.742.125.18.189.293.189.293Z" fill="#313439"/><path d="M168.379,637.901c0,0-.045.126-.142.331-.1.193-.234.515-.43.85-.385.692-.971,1.581-1.739,2.459-.392.43-.816.885-1.229,1.319-.425.433-.881.846-1.366,1.227-.487.392-.99.709-1.54,1.064-.546.34-1.116.646-1.704.914-1.188.507-2.4.962-3.656,1.177-.626.112-1.235.214-1.847.257-.605.056-1.221.038-1.781.04-1.137-.025-2.183-.183-2.951-.334-.381-.069-.714-.176-.926-.221-.219-.056-.347-.099-.347-.099s.016-.132.067-.354c.057-.214.125-.555.254-.926.122-.379.29-.824.508-1.29.218-.467.487-.963.802-1.476.32-.506.688-1.014,1.109-1.508.422-.49.883-.99,1.399-1.43.516-.442,1.07-.867,1.659-1.247.583-.39,1.211-.721,1.857-1.009.647-.287,1.313-.535,1.981-.741.655-.215,1.39-.338,2.073-.436.693-.093,1.374-.139,2.028-.14.66-.019,1.272.07,1.841.171c1.148.206,2.16.535,2.892.835.362.14.667.308.867.397.208.101.321.17.321.17Z" fill="#313439"/><path d="M178.498,689.403c0,0-.147.021-.403.034-.249.001-.641.045-1.085.047-.455.013-.966-.001-1.552-.021-.59-.021-1.229-.073-1.9-.156-.658-.102-1.386-.181-2.107-.328-.727-.139-1.456-.337-2.2-.548-.753-.197-1.504-.439-2.241-.729-.368-.146-.737-.295-1.098-.464-.369-.151-.737-.304-1.101-.466-.725-.331-1.432-.698-2.114-1.103-.675-.424-1.35-.798-1.987-1.224-.637-.423-1.242-.878-1.808-1.352-.283-.237-.558-.477-.819-.725-.266-.231-.53-.437-.777-.663-.992-.889-1.806-1.803-2.372-2.517-.286-.348-.5-.682-.653-.883-.15-.213-.227-.344-.227-.344s.126-.071.357-.173c.229-.091.574-.26,1.001-.399.858-.3,2.08-.62,3.53-.795.364-.047.736-.07,1.128-.104.379-.006.769.006,1.167.026.797.043,1.629.133,2.48.272.848.144,1.727.307,2.555.617.838.287,1.675.623,2.494.994.405.195.817.378,1.207.598.388.223.765.463,1.137.704.742.484,1.447,1.005,2.104,1.544.65.552,1.234,1.156,1.77,1.744.535.59,1.009,1.187,1.412,1.789.402.602.746,1.178,1.027,1.712.282.541.501,1.056.661,1.482.169.421.256.796.326,1.035.064.251.088.396.088.396Z" fill="#313439"/><path d="M88.955,668.209c0,0,.065-.113.191-.294.128-.17.31-.457.552-.745.483-.6,1.186-1.352,2.057-2.055.871-.705,1.909-1.371,3.05-1.877.563-.257,1.164-.475,1.826-.63.649-.161,1.315-.282,1.987-.361.673-.07,1.345-.114,2.018-.09.681.046,1.354.147,2.001.285s1.273.316,1.855.532c.559.229,1.089.51,1.577.781.977.561,1.791,1.197,2.36,1.717.285.25.509.506.661.654.153.16.234.263.234.263s-.079.107-.226.271c-.147.152-.363.416-.639.674-.55.537-1.336,1.197-2.278,1.787-.472.287-.982.584-1.522.829-.517.267-1.048.507-1.6.706-.55.197-1.116.362-1.693.473-.581.138-1.18.258-1.779.324-.601.065-1.206.087-1.809.067-.591-.025-1.22-.075-1.843-.158-1.235-.168-2.415-.521-3.444-.957-1.03-.435-1.911-.961-2.538-1.403-.312-.21-.565-.436-.734-.563-.171-.138-.264-.23-.264-.23Z" fill="#313439"/><path d="M93.958,639.75c0,0,.123-.067.342-.162.215-.085.544-.246.937-.379.794-.283,1.894-.59,3.149-.769c1.256-.181,2.67-.24,4.117-.106.722.058,1.46.178,2.202.367.739.181,1.478.404,2.201.669c1.444.536,2.834,1.227,4.06,2.053.604.419,1.172.866,1.694,1.329.524.457.994.952,1.422,1.418.424.478.798.947,1.118,1.395.319.451.585.873.792,1.242.212.358.355.696.462.902.103.216.151.348.151.348s-.127.061-.352.145c-.221.074-.559.219-.958.331-.805.242-1.916.501-3.175.632-.625.057-1.297.105-1.981.094-.686-.007-1.392-.056-2.104-.149-1.425-.157-2.864-.512-4.248-1.023-1.393-.512-2.678-1.21-3.924-1.986-1.229-.779-2.312-1.692-3.196-2.604-.886-.909-1.57-1.825-2.025-2.535-.231-.345-.393-.674-.512-.873-.116-.21-.172-.339-.172-.339Z" fill="#313439"/><path d="M121.943,618.971c0,0,.135.036.358.118.213.088.561.199.934.376.767.343,1.769.88,2.793,1.616.506.368,1.039.772,1.536,1.301.503.511.997,1.076,1.469,1.687.237.305.464.623.688.948.202.338.403.683.59,1.037.372.712.729,1.44,1.011,2.212.259.789.48,1.593.65,2.393.156.803.208,1.614.243,2.396.033.785-.052,1.508-.136,2.219-.083.717-.254,1.349-.413,1.955-.173.604-.371,1.176-.563,1.668-.197.5-.393.945-.582,1.32-.176.373-.372.683-.48.889-.119.208-.2.324-.2.324s-.122-.066-.318-.201c-.186-.136-.495-.328-.815-.594-.333-.263-.705-.593-1.102-.983-.401-.394-.791-.833-1.194-1.328-.387-.491-.794-1.052-1.157-1.591-.373-.541-.697-1.155-1.03-1.724-.332-.572-.611-1.173-.88-1.779-.288-.599-.534-1.217-.741-1.849-.227-.636-.456-1.285-.619-1.945-.085-.329-.155-.662-.22-.995-.075-.332-.15-.66-.206-.992-.117-.663-.19-1.328-.226-1.984-.024-.647-.05-1.324-.061-1.951-.001-1.26.146-2.386.315-3.207.075-.405.188-.753.241-.977.065-.229.115-.359.115-.359Z" fill="#313439"/><path d="M143.754,621.441c0,0,.055.122.127.336.063.209.189.533.281.911.203.766.4,1.812.457,2.977.017.581.027,1.203.033,1.802-.005.607-.046,1.221-.13,1.832-.078.619-.22,1.196-.369,1.834-.157.624-.354,1.24-.59,1.842-.502,1.19-1.058,2.359-1.812,3.386-.373.516-.74,1.012-1.15,1.468-.396.46-.852.876-1.253,1.266-.835.771-1.697,1.386-2.355,1.81-.322.215-.635.371-.818.485-.196.112-.319.17-.319.17s-.08-.105-.197-.301c-.108-.193-.296-.486-.461-.843-.175-.358-.363-.795-.531-1.282-.168-.486-.319-1.029-.448-1.617-.122-.587-.21-1.208-.25-1.855-.037-.647-.053-1.326.013-2.001.064-.677.167-1.366.327-2.05.149-.686.371-1.359.636-2.016.266-.657.572-1.297.911-1.909.322-.61.765-1.209,1.188-1.755.434-.548.893-1.054,1.362-1.51.462-.472.964-.833,1.444-1.156.969-.648,1.925-1.114,2.661-1.406.358-.152.694-.244.899-.318.214-.07.344-.1.344-.1Z" fill="#313439"/><path d="M87.09,689.795c0,0,.028-.147.1-.398.076-.242.171-.624.351-1.052.17-.435.401-.953.696-1.508.295-.544.653-1.13,1.071-1.743.833-1.231,1.966-2.446,3.283-3.623.677-.553,1.403-1.09,2.167-1.59.763-.5,1.554-.985,2.405-1.361.844-.387,1.704-.739,2.567-1.044.435-.146.859-.3,1.3-.406.446-.1.887-.193,1.326-.268.876-.154,1.735-.258,2.557-.313.411-.028.811-.046,1.203-.047.395.009.787.042,1.16.08c1.499.157,2.758.463,3.642.754.439.135.795.301,1.03.389.237.099.367.169.367.169s-.081.132-.237.348c-.16.204-.383.541-.68.892-.589.725-1.433,1.65-2.459,2.552-.511.44-1.063.919-1.648,1.424-.586.485-1.211.952-1.871,1.387-.329.221-.668.426-1.013.631-.342.213-.689.429-1.039.646-.705.419-1.438.802-2.187,1.15-.759.324-1.508.683-2.271.99s-1.539.564-2.316.779c-.762.242-1.521.447-2.269.606s-1.491.262-2.169.376c-.691.097-1.348.161-1.954.192-.598.034-1.127.056-1.593.051-.455.005-.855-.033-1.109-.03-.26-.013-.41-.033-.41-.033Z" fill="#313439"/></g><clipPath id="eNJFvsYeaxr78"><use width="69.293236" height="84.838989" xlink:href="#eNJFvsYeaxr2"/></clipPath></g></g><path d="M125.513,694.25c0,2.584-2.094,4.681-4.68,4.681-2.585,0-4.681-2.097-4.681-4.681c0-2.585,2.095-4.683,4.681-4.683c2.585,0,4.68,2.098,4.68,4.683Z" fill="#f7f1e6"/><path d="M151.91,694.25c0,2.584-2.097,4.681-4.682,4.681s-4.68-2.097-4.68-4.681c0-2.585,2.095-4.683,4.68-4.683s4.682,2.098,4.682,4.683Z" fill="#f7f1e6"/></g><g transform="matrix(1 0 0 1.101602-212.195862-475.947981)"><path d="M360.397,500.214c0,13.996-11.344,25.341-25.342,25.341-13.996,0-25.341-11.345-25.341-25.341c0-13.995,11.345-25.342,25.341-25.342c13.999,0,25.342,11.347,25.342,25.342Z" fill="#8a603c"/><path d="M312.296,500.31c0,13.996-11.345,25.341-25.343,25.341-13.995,0-25.341-11.345-25.341-25.341s11.347-25.343,25.341-25.343c13.999.001,25.343,11.348,25.343,25.343Z" fill="#8a603c"/><g><g><path d="M305.737,520.961c-.006.008-.014.022-.018.027.005-.008.013-.019.015-.03-.001,0,.003,0,.003.003Z" fill="#07171b"/></g><g><path d="M305.701,520.961c.005.008.013.022.017.027-.004-.008-.012-.019-.015-.03c0,0-.002,0-.002.003Z" fill="#07171b"/></g></g><g><g><path d="M311.436,519.466c-.014,0-.027-.003-.038-.003.011,0,.024-.003.038-.003v.006Z" fill="#a84720"/></g><g><path d="M311.359,519.466c.014,0,.029-.003.04-.003-.011,0-.025-.003-.04-.003v.006Z" fill="#a84720"/></g></g><g><g><g><g><g><circle r="16.717" transform="translate(340.242 452.773)" fill="#af5b2b"/></g><g><path d="M330.605,452.773c0,5.322,4.313,9.638,9.636,9.638c5.322,0,9.637-4.315,9.637-9.638c0-5.322-4.315-9.637-9.637-9.637-5.323.001-9.636,4.315-9.636,9.637Z" fill="#4b190d"/></g></g><g><g><circle r="16.717" transform="translate(340.242 452.773)" fill="#8a603c"/></g><g><path d="M330.605,452.773c0,5.322,4.313,9.638,9.636,9.638c5.322,0,9.637-4.315,9.637-9.638c0-5.322-4.315-9.637-9.637-9.637-5.323.001-9.636,4.315-9.636,9.637Z" fill="#c2986b"/></g></g><g><path d="M311.513,443.565v48.301v10.933c.007.005.015.006.021.012l-.021,8.453v2.018h-.003l-.036,13.688" fill="#f39e2b"/></g><g><line x1="311.507" y1="528.514" x2="311.565" y2="502.81" fill="#f6f3cf"/></g></g><g><path d="M311.517,449.75c-.015,0-.028,0-.039,0c.011,0,.024,0,.039,0v0Z" fill="#4b190d"/></g><g><path d="M311.478,449.75c-.013,0-.027,0-.04,0v0c.013,0,.027,0,.04,0Z" fill="#4b190d"/></g></g><g><g><g><g><path d="M299.351,452.773c0,9.232-7.483,16.717-16.717,16.717-9.232,0-16.716-7.485-16.716-16.717s7.485-16.717,16.716-16.717c9.234.001,16.717,7.485,16.717,16.717Z" fill="#af5b2b"/></g><g><path d="M292.271,452.773c0,5.322-4.313,9.638-9.637,9.638-5.322,0-9.637-4.315-9.637-9.638c0-5.322,4.315-9.637,9.637-9.637c5.324.001,9.637,4.315,9.637,9.637Z" fill="#4b190d"/></g></g><g><g><path d="M299.351,452.773c0,9.232-7.483,16.717-16.717,16.717-9.232,0-16.716-7.485-16.716-16.717s7.485-16.717,16.716-16.717c9.234.001,16.717,7.485,16.717,16.717Z" fill="#8a603c"/></g><g><path d="M292.271,452.773c0,5.322-4.313,9.638-9.637,9.638-5.322,0-9.637-4.315-9.637-9.638c0-5.322,4.315-9.637,9.637-9.637c5.324.001,9.637,4.315,9.637,9.637Z" fill="#c2986b"/></g></g><g><path d="M311.363,443.565v48.301v10.933c-.007.005-.015.006-.021.012l.021,8.453v2.018h.004l.035,13.688" fill="#f39e2b"/></g><path d="M352.75,486.101c0-22.165-9.953-42.535-41.289-42.535l-.045.472v-.472c-31.337,0-41.29,20.37-41.29,42.535-2.333,9.506-6.411,9.237-4.116,21.382c2.294,12.145,15.301,16.639,24.791,16.897c0-.71,0-2.748,0-8.049c0-6.02,9.742-1.857,10.401-3.301c6.885,2.723,3.133-1.096,4.499,1.78c1.702-.946,3.635-1.528,5.715-1.528v-.21l.045.21c2.079,0,4.012.582,5.714,1.528c1.366-2.876-5.646,3.62,1.24.897.659,1.445,13.66-5.396,13.66.623c0,5.301,0,7.339,0,8.049c8.143,0,23.061.125,23.826-15.367.665-13.469-.818-13.406-3.151-22.911Z" fill="#8a603c"/><g><line x1="311.369" y1="528.514" x2="311.311" y2="502.81" fill="#f6f3cf"/></g></g><g><path d="M311.359,449.75c.014,0,.029,0,.04,0-.011,0-.026,0-.04,0v0Z" fill="#4b190d"/></g><g><path d="M311.398,449.75c.013,0,.026,0,.04,0v0c-.013,0-.027,0-.04,0Z" fill="#4b190d"/></g></g></g><g><g><path d="M321.208,479.264c0,3.215,2.606,5.818,5.82,5.818s5.82-2.604,5.82-5.818c0-3.215-2.606-5.82-5.82-5.82-3.213-.001-5.82,2.605-5.82,5.82Z" fill="#3b3e43"/></g><path d="M325.717,474.691c0,1.688,1.37,3.055,3.058,3.055s3.056-1.367,3.056-3.055c0-1.689-1.368-3.057-3.056-3.057-1.688.001-3.058,1.368-3.058,3.057Z" fill="#fff"/></g><g><g><path d="M303.994,479.264c0,3.215-2.604,5.818-5.818,5.818s-5.82-2.604-5.82-5.818c0-3.215,2.606-5.82,5.82-5.82c3.214-.001,5.818,2.605,5.818,5.82Z" fill="#3b3e43"/></g><path d="M299.485,474.691c0,1.688-1.368,3.055-3.056,3.055-1.689,0-3.056-1.367-3.056-3.055c0-1.689,1.368-3.057,3.056-3.057c1.688.001,3.056,1.368,3.056,3.057Z" fill="#fff"/></g><path d="M324.993,501.889c-3.612-1.141-6.448-2.576-13.555.922-7.108-3.498-9.942-2.063-13.554-.922-1.689.695-7.082,3.528-7.082,14.441c0,5.301-.12,8.517-.12,9.227c6.375,2.276,8.704,3.824,21.326,3.824c12.624,0,13.314-1.645,19.688-3.92c0-.709.38-3.83.38-9.131c0-10.913-5.395-13.746-7.083-14.441Z" fill="#f3dbbd"/><path d="M320.928,500.934c0,3.441-3.98,7.728-8.891,7.728s-8.892-4.286-8.892-7.728s3.982-6.232,8.892-6.232c4.911-.001,8.891,2.79,8.891,6.232Z" fill="#3b3e43"/><g><path d="M303.667,518.146c-2.183,0-4.602-1.075-7.22-3.219-.347-.286-.399-.8-.114-1.15.286-.35.801-.399,1.149-.114c3.06,2.505,5.698,3.361,7.836,2.55c4.261-1.621,5.522-9.246,5.533-9.324.073-.442.489-.748.935-.676s.75.488.678.936c-.055.35-1.432,8.637-6.566,10.589-.713.272-1.457.408-2.231.408Z" fill="#3b3e43"/><path d="M318.823,518.86c-.674,0-1.32-.123-1.938-.371-4.882-1.953-5.796-11.008-5.833-11.394-.043-.449.286-.848.733-.89.449-.045.85.286.89.735.227,2.346,1.531,8.719,4.819,10.033c1.802.722,4.101-.113,6.829-2.481.341-.296.856-.259,1.151.08.295.341.26.858-.081,1.152-2.406,2.089-4.606,3.136-6.57,3.136Z" fill="#3b3e43"/></g><path d="M317.83,499.068c-.207.825-1.423,1.225-2.712.896-1.289-.331-2.164-1.27-1.957-2.096.209-.824,1.422-1.225,2.71-.896c1.29.334,2.166,1.27,1.959,2.096Z" fill="#fff"/></g><g display="none" transform="translate(-33.892311-255.69925)"><g><g><g><path d="M146.6,297.286c7.164-29.051,30.789-39.22,30.789-39.22s16.889,44.088-15.394,54.602L146.6,297.286Z" fill="#d45f26"/></g></g><g><g><g><path d="M150.047,299.958c9.227-27.595,24.007-32.407,24.007-32.407s12.772,26.35-15.287,42.423l-8.72-10.016Z" fill="#f3dbbd"/></g></g></g><g><g><path d="M118.803,297.286c-7.165-29.051-30.791-39.22-30.791-39.22s-16.887,44.088,15.395,54.602l15.396-15.382Z" fill="#d45f26"/></g></g><g><g><g><path d="M115.356,299.958c-9.23-27.595-24.009-32.407-24.009-32.407s-12.771,26.35,15.288,42.423l8.721-10.016Z" fill="#f3dbbd"/></g></g></g></g><g><g><path d="M132.684,289.767v.001c.012,0,.024-.001.035-.001-.011,0-.023,0-.035,0Z" fill="#e96332"/></g></g><g><g><path d="M132.754,289.767c-.013,0-.025,0-.035,0c.01,0,.022.001.035.001v-.001Z" fill="#a84720"/></g></g><path d="M168.377,325.309c0-19.607-15.876-35.504-35.476-35.539v-.003c-.012,0-.023.001-.034.001-.012,0-.022-.001-.034-.001v.003c-.016,0-.033,0-.049,0s-.034,0-.05,0v-.003c-.013,0-.023.001-.034.001-.012,0-.024-.001-.035-.001v.003c-19.599.035-35.476,15.933-35.476,35.539c0,.464-8.54,10.097-2.705,21.603c3.227,6.362,21.03,13.161,37.994,13.348c17.985.198,35.182-6.602,38.604-13.348c5.835-11.506-2.705-21.139-2.705-21.603Z" fill="#ea692b"/><g><g><path d="M141.675,319.669c0,3.009,2.442,5.449,5.452,5.449c3.007,0,5.45-2.441,5.45-5.449c0-3.01-2.442-5.451-5.45-5.451-3.01,0-5.452,2.442-5.452,5.451Z" fill="#3b3e43"/></g><path d="M145.897,315.388c0,1.581,1.284,2.86,2.864,2.86s2.861-1.279,2.861-2.86c0-1.582-1.281-2.861-2.861-2.861s-2.864,1.279-2.864,2.861Z" fill="#fff"/></g><g><g><path d="M125.558,319.669c0,3.009-2.438,5.449-5.448,5.449-3.009,0-5.45-2.441-5.45-5.449c0-3.01,2.44-5.451,5.45-5.451s5.448,2.442,5.448,5.451Z" fill="#3b3e43"/></g><path d="M121.337,315.388c0,1.581-1.282,2.86-2.862,2.86-1.581,0-2.861-1.279-2.861-2.86c0-1.582,1.279-2.861,2.861-2.861c1.58,0,2.862,1.279,2.862,2.861Z" fill="#fff"/></g><path d="M168.377,325.309c0-19.607-15.876-35.504-35.476-35.539v-.003c-.012,0-.023.001-.034.001-.012,0-.022-.001-.034-.001v.003c-.016,0-.033,0-.049,0s-.034,0-.05,0v-.003c-.013,0-.023.001-.034.001-.012,0-.024-.001-.035-.001v.003c-19.599.035-35.476,15.933-35.476,35.539c0,.464-8.54,10.097-2.705,21.603c3.227,6.362,21.03,13.161,37.994,13.348c17.985.198,35.182-6.602,38.604-13.348c5.835-11.506-2.705-21.139-2.705-21.603Z" fill="none"/><g><path d="M142.003,343.669c0,3.353-3.913,7.526-8.738,7.526-4.828,0-8.738-4.174-8.738-7.526c0-3.351,3.91-6.068,8.738-6.068c4.825,0,8.738,2.718,8.738,6.068Z" fill="#3b3e43"/><path d="M138.957,341.855c-.203.805-1.396,1.193-2.663.872-1.266-.321-2.128-1.234-1.926-2.04.205-.805,1.399-1.193,2.665-.872c1.267.323,2.129,1.234,1.924,2.04Z" fill="#fff"/></g><g><g clip-path="url(#eNJFvsYeaxr190)"><path d="M125.771,363.582c-2.851,3.657-13.92-.194-24.726-8.609-10.806-8.413-17.257-18.202-14.407-21.862c2.849-3.659,13.922.196,24.725,8.608c10.809,8.414,17.258,18.2,14.408,21.863Z" fill="#f3dbbd"/><path d="M139.979,362.113c2.835,3.458,14.146-.363,25.263-8.536c11.117-8.17,17.831-17.598,14.997-21.058-2.835-3.457-14.148.365-25.265,8.535-11.114,8.173-17.829,17.599-14.995,21.059Z" fill="#f3dbbd"/><clipPath id="eNJFvsYeaxr190"><use width="80.677078" height="70.497192" xlink:href="#eNJFvsYeaxr9"/></clipPath></g></g></g></g></svg>
