<svg id="e74gEH9uTYC1" xmlns="http://www.w3.org/2000/svg" xmlns:xlink="http://www.w3.org/1999/xlink" viewBox="0 0 150 150" shape-rendering="geometricPrecision" text-rendering="geometricPrecision" project-id="e0a33e5389434b33b3ed12955db5401c" export-id="872d9912d40147ffbce11ce2be9d8dc9" cached="false"><defs><path id="e74gEH9uTYC2" d="M167.026,671.594c0,23.428,6.046,42.419-34.325,42.419s-34.326-18.991-34.326-42.419s14.938-42.42,34.326-42.42s34.325,18.992,34.325,42.42Z"/><path id="e74gEH9uTYC3" d="M700.261,686.177c-.551,11.679,7.359,26.699-30.404,26.699-42.791,0-29.71-15.03-30.383-25.966-1.386-22.501,13.29-39.483,31.573-39.483c18.284,0,30.307,15.613,29.214,38.75Z"/><path id="e74gEH9uTYC4" d="M700.23,687.462c4.966,7.727,8.407,27.621-30.374,27.621-38.783,0-32.161-20.815-28.849-27.804-1.387-22.503,11.756-39.852,30.039-39.852c18.285,0,29.922,16.886,29.184,40.035Z"/><path id="e74gEH9uTYC5" d="M529.67,323.963c2.469,26.02-16.186,40.027-41.301,40.027-25.114,0-42.641-14.93-38.328-48.893c3.066-24.156,15.038-37.722,42.035-37.722c33.297,0,35.433,23.815,37.594,46.588Z"/><path id="e74gEH9uTYC6" d="M701.281,135.544c-4.735-24.609-11.942-31.248-32.461-31.248-.092,0-.183.003-.272.004-.091-.001-.181-.004-.272-.004-20.52,0-27.728,6.64-32.462,31.248-7.101,9.765-6.051,39.525,31.102,39.525.552,0,1.093-.005,1.632-.013.537.008,1.079.013,1.632.013c37.153,0,38.202-29.76,31.101-39.525Z"/><path id="e74gEH9uTYC7" d="M527.782,490.731c0-20.82-16.857-37.698-37.668-37.738v-.002c-.013,0-.025.002-.039.002-.01,0-.022-.002-.035-.002v.002c-.016,0-.034,0-.052,0-.017,0-.035,0-.052,0v-.002c-.013,0-.023.002-.037.002-.013,0-.023-.002-.036-.002v.002c-20.811.04-37.669,16.918-37.669,37.738c0,.49-9.066,10.72-2.872,22.937c3.426,6.756,22.33,13.976,40.341,14.174c19.1.21,37.359-7.011,40.992-14.174c6.195-12.217-2.873-22.446-2.873-22.937Z"/><path id="e74gEH9uTYC8" d="M346.541,310.747c0-19.204-15.551-34.775-34.746-34.811v-.002c-.012,0-.023.001-.035.001-.011,0-.021-.001-.032-.001v.002c-.015,0-.034,0-.049,0-.016,0-.032,0-.048,0v-.002c-.011,0-.022.001-.034.001-.011,0-.021-.001-.033-.001v.002c-19.195.035-34.746,15.607-34.746,34.811c0,.452-8.365,9.888-2.649,21.157c3.159,6.232,20.597,17.72,37.212,17.902c17.616.193,34.46-11.293,37.811-17.902c5.713-11.269-2.651-20.705-2.651-21.157Z"/><path id="e74gEH9uTYC9" d="M168.377,325.309c0-19.607-15.876-35.504-35.476-35.539v-.003c-.012,0-.023.001-.034.001-.012,0-.022-.001-.034-.001v.003c-.016,0-.033,0-.049,0s-.034,0-.05,0v-.003c-.013,0-.023.001-.034.001-.012,0-.024-.001-.035-.001v.003c-19.599.035-35.476,15.933-35.476,35.539c0,.464-8.54,10.097-2.705,21.603c3.227,6.362,21.03,13.161,37.994,13.348c17.985.198,35.182-6.602,38.604-13.348c5.835-11.506-2.705-21.139-2.705-21.603Z"/></defs><g display="none"><g><g><path d="M193.73,131.756c0,8.249-6.688,14.936-14.937,14.936s-14.937-6.686-14.937-14.936s6.688-14.937,14.937-14.937c8.249.001,14.937,6.688,14.937,14.937Z" fill="#7b5735"/><path d="M188.368,131.756c0,5.288-4.285,9.574-9.574,9.574-5.288,0-9.575-4.286-9.575-9.574c0-5.289,4.287-9.575,9.575-9.575c5.289.001,9.574,4.287,9.574,9.575Z" fill="#f3dbbd"/></g><g><path d="M101.543,129.846c0,8.248-6.688,14.935-14.936,14.935-8.249,0-14.937-6.687-14.937-14.935c0-8.25,6.688-14.937,14.937-14.937c8.248.001,14.936,6.687,14.936,14.937Z" fill="#7b5735"/><path d="M96.183,129.846c0,5.288-4.288,9.574-9.575,9.574-5.289,0-9.575-4.286-9.575-9.574c0-5.289,4.286-9.575,9.575-9.575c5.287,0,9.575,4.287,9.575,9.575Z" fill="#f3dbbd"/></g><path d="M179.279,133.65c0,25.912-21.005,46.916-46.916,46.916s-46.915-21.004-46.915-46.916c0-25.911,21.004-46.916,46.915-46.916c25.911.001,46.916,21.005,46.916,46.916Z" fill="#8a603c"/><path d="M172.069,130.148c.042-11.282-9.069-20.463-20.352-20.506-8.823-.034-16.362,5.532-19.248,13.356-2.829-7.845-10.324-13.468-19.147-13.501-11.283-.043-20.463,9.069-20.506,20.351s9.068,20.463,20.351,20.507c.312,0,.62-.008.929-.02-1.327,3.454-2.082,6.975-2.082,10.107c0,11.281,9.146,20.427,20.428,20.427c11.283,0,20.429-9.146,20.429-20.427c0-3.086-.641-6.551-1.797-9.956.163.004.325.014.488.014c11.283.042,20.463-9.069,20.507-20.352Z" fill="#f3dbbd"/><g><path d="M140.906,130.65c0,5.83,4.725,10.553,10.554,10.553c5.83,0,10.552-4.723,10.552-10.553c0-5.829-4.723-10.553-10.552-10.553s-10.554,4.725-10.554,10.553Z" fill="#d1bea5"/><g><path d="M144.754,130.736c0,3.468,2.811,6.278,6.278,6.278s6.279-2.81,6.279-6.278c0-3.467-2.812-6.279-6.279-6.279s-6.278,2.812-6.278,6.279Z" fill="#3d342f"/><path d="M150.136,125.554c0,1.651,1.337,2.989,2.988,2.989c1.652,0,2.991-1.338,2.991-2.989s-1.339-2.99-2.991-2.99c-1.65,0-2.988,1.339-2.988,2.99Z" fill="#fff"/></g></g><g><path d="M124.179,130.65c0,5.83-4.723,10.553-10.552,10.553-5.83,0-10.554-4.723-10.554-10.553c0-5.829,4.725-10.553,10.554-10.553s10.552,4.725,10.552,10.553Z" fill="#d1bea5"/><g><path d="M120.332,130.736c0,3.468-2.811,6.278-6.278,6.278s-6.279-2.81-6.279-6.278c0-3.467,2.812-6.279,6.279-6.279s6.278,2.812,6.278,6.279Z" fill="#3d342f"/><path d="M114.95,125.554c0,1.651-1.337,2.989-2.988,2.989-1.652,0-2.99-1.338-2.99-2.989s1.338-2.99,2.99-2.99c1.651,0,2.988,1.339,2.988,2.99Z" fill="#fff"/></g></g><path d="M136.974,164.864c0,2.23-1.808,4.037-4.038,4.037s-4.037-1.808-4.037-4.037c0-2.23,1.807-4.038,4.037-4.038s4.038,1.808,4.038,4.038Z" fill="#3d342f"/></g><g><ellipse rx="20.007" ry="20.007" transform="matrix(.7071-.7071 0.7071 0.7071 634.855768 453.515882)" fill="#313439"/><path d="M723.465,453.515c0,11.049-8.959,20.007-20.008,20.007s-20.006-8.958-20.006-20.007c0-11.048,8.957-20.007,20.006-20.007s20.008,8.959,20.008,20.007Z" fill="#313439"/><path d="M717.704,486.902c5.46,23.914,0,45.027-48.314,45.027-48.313,0-50.318-18.732-45.41-45.027c4.689-25.128,18.727-44.233,45.41-44.233s42.62,19.296,48.314,44.233Z" fill="#f7f1e6"/><path d="M681.517,492.646c2.571,8.633,13.167,10.05,19.136,6.263c5.968-3.788,7.076-12.734,2.477-19.98-4.598-7.247-13.164-10.052-19.133-6.264-5.969,3.787-4.929,11.753-2.48,19.981Z" fill="#3b3e43"/><path d="M679.529,505.052c0,3.289-3.838,7.384-8.574,7.384s-8.574-4.095-8.574-7.384c0-3.287,3.838-5.955,8.574-5.955s8.574,2.668,8.574,5.955Z" fill="#3b3e43"/><g><path d="M662.016,522.497c-2.352,0-4.955-1.159-7.776-3.468-.376-.307-.432-.86-.124-1.236.309-.377.861-.432,1.237-.124c3.298,2.698,6.14,3.622,8.442,2.746c4.59-1.746,5.949-9.96,5.961-10.042.078-.479.526-.808,1.008-.73.48.077.807.527.73,1.006-.06.38-1.543,9.307-7.074,11.41-.769.293-1.57.438-2.404.438Z" fill="#3b3e43"/><path d="M678.342,523.269c-.726,0-1.423-.134-2.088-.4-5.26-2.105-6.244-11.858-6.284-12.274-.046-.483.309-.913.792-.958.482-.05.914.309.958.791.243,2.526,1.648,9.393,5.19,10.809c1.942.776,4.418-.122,7.358-2.673.367-.317.922-.277,1.238.089.319.366.279.922-.086,1.241-2.591,2.245-4.962,3.375-7.078,3.375Z" fill="#3b3e43"/></g><g><path d="M685.691,486.813c0,3.923,3.178,7.101,7.1,7.101s7.102-3.178,7.102-7.101c0-3.921-3.18-7.101-7.102-7.101s-7.1,3.18-7.1,7.101Z" fill="#fff"/><g><path d="M689.197,486.873c0,1.984,1.609,3.594,3.594,3.594c1.984,0,3.594-1.609,3.594-3.594s-1.609-3.594-3.594-3.594c-1.984,0-3.594,1.609-3.594,3.594Z" fill="#3b3e43"/><path d="M691.982,484.049c0,1.043.844,1.888,1.887,1.888c1.042,0,1.887-.845,1.887-1.888c0-1.042-.845-1.887-1.887-1.887-1.043,0-1.887.845-1.887,1.887Z" fill="#fff"/></g></g><path d="M662.107,491.033c-2.572,8.634-13.166,10.05-19.134,6.262-5.968-3.787-7.078-12.732-2.479-19.978c4.601-7.248,13.168-10.051,19.135-6.264c5.968,3.789,4.928,11.754,2.478,19.98Z" fill="#3b3e43"/><g><path d="M658.252,485.016c0,3.922-3.179,7.101-7.1,7.101s-7.102-3.179-7.102-7.101c0-3.921,3.181-7.102,7.102-7.102s7.1,3.181,7.1,7.102Z" fill="#fff"/><g><path d="M654.746,485.076c0,1.985-1.609,3.594-3.594,3.594-1.984,0-3.594-1.608-3.594-3.594c0-1.985,1.609-3.596,3.594-3.596s3.594,1.611,3.594,3.596Z" fill="#3b3e43"/><path d="M651.961,482.252c0,1.043-.844,1.888-1.887,1.888-1.042,0-1.887-.845-1.887-1.888s.845-1.888,1.887-1.888c1.043,0,1.887.845,1.887,1.888Z" fill="#fff"/></g></g><path d="M676.541,503.269c-.202.79-1.372,1.172-2.614.856-1.243-.316-2.089-1.211-1.888-2c.201-.79,1.37-1.173,2.614-.856c1.241.316,2.087,1.21,1.888,2Z" fill="#fff"/></g><g><g><path d="M121.088,622.58c3.055,13.784,1.837,25.779-2.721,26.789-4.559,1.01-10.729-9.347-13.785-23.133-3.055-13.786-1.837-25.779,2.722-26.79c4.559-1.008,10.731,9.347,13.784,23.134Z" fill="#e0dcd3"/><path d="M119.359,622.962c2.415,10.896,1.451,20.374-2.152,21.174-3.602.798-8.481-7.388-10.895-18.282-2.415-10.896-1.451-20.375,2.151-21.172c3.604-.799,8.48,7.384,10.896,18.28Z" fill="#313439"/></g><g><path d="M143.199,622.58c-3.053,13.784-1.835,25.779,2.724,26.789c4.558,1.01,10.729-9.347,13.784-23.133s1.837-25.779-2.722-26.79c-4.56-1.008-10.73,9.347-13.786,23.134Z" fill="#e0dcd3"/><path d="M144.932,622.962c-2.415,10.896-1.452,20.374,2.15,21.174c3.603.798,8.48-7.388,10.894-18.282c2.414-10.896,1.451-20.375-2.151-21.172-3.602-.799-8.48,7.384-10.893,18.28Z" fill="#313439"/></g><path d="M167.026,671.594c0,27.271,9.499,42.419-34.325,42.419-43.823,0-34.326-17.781-34.326-42.419c0-23.428,14.938-42.42,34.326-42.42s34.325,18.992,34.325,42.42Z" fill="#f7f1e6"/><ellipse rx="34.812" ry="18.431" transform="translate(132.994 698.508)" fill="#313439"/><g><path d="M124.928,663.269c0,2.585-2.095,4.682-4.681,4.682s-4.68-2.097-4.68-4.682c0-2.586,2.095-4.681,4.68-4.681c2.585.001,4.681,2.096,4.681,4.681Z" fill="#313439"/><path d="M120.572,659.499c0,1.65-1.337,2.989-2.991,2.989-1.651,0-2.989-1.339-2.989-2.989c0-1.652,1.338-2.99,2.989-2.99c1.653,0,2.991,1.338,2.991,2.99Z" fill="#fff"/></g><g><path d="M140.403,663.269c0,2.585,2.094,4.682,4.681,4.682c2.584,0,4.68-2.097,4.68-4.682c0-2.586-2.096-4.681-4.68-4.681-2.587.001-4.681,2.096-4.681,4.681Z" fill="#313439"/><path d="M144.759,659.498c0,1.651,1.338,2.99,2.988,2.99c1.652,0,2.992-1.339,2.992-2.99s-1.34-2.989-2.992-2.989c-1.65,0-2.988,1.338-2.988,2.989Z" fill="#fff"/></g><g><g clip-path="url(#e74gEH9uTYC128)"><g><path d="M177.33,667.56c0,0-.092.092-.258.231-.165.128-.413.355-.717.567-.612.445-1.473.977-2.478,1.416-1.006.441-2.158.8-3.364.976-.302.046-.606.076-.914.104-.301.023-.579.063-.869.074-.576.031-1.152.021-1.725-.033-.572-.059-1.141-.16-1.7-.298-.544-.086-1.081-.227-1.606-.403-.526-.176-1.041-.394-1.539-.644-.525-.222-1.042-.483-1.513-.743-.945-.536-1.746-1.15-2.314-1.653-.283-.242-.509-.492-.662-.637-.154-.155-.237-.256-.237-.256s.073-.108.212-.275c.139-.157.342-.427.605-.692.525-.552,1.285-1.234,2.212-1.852.466-.297.963-.616,1.511-.867.575-.237,1.192-.442,1.838-.605.646-.162,1.32-.29,2.005-.361.666-.024,1.339.003,2.011.065.671.069,1.337.182,1.986.334.32.077.651.164.949.264.289.11.574.224.853.351c1.114.499,2.127,1.159,2.978,1.86.851.698,1.537,1.446,2.008,2.042.236.288.414.574.539.742.125.18.189.293.189.293Z" fill="#313439"/><path d="M168.379,637.901c0,0-.045.126-.142.331-.1.193-.234.515-.43.85-.385.692-.971,1.581-1.739,2.459-.392.43-.816.885-1.229,1.319-.425.433-.881.846-1.366,1.227-.487.392-.99.709-1.54,1.064-.546.34-1.116.646-1.704.914-1.188.507-2.4.962-3.656,1.177-.626.112-1.235.214-1.847.257-.605.056-1.221.038-1.781.04-1.137-.025-2.183-.183-2.951-.334-.381-.069-.714-.176-.926-.221-.219-.056-.347-.099-.347-.099s.016-.132.067-.354c.057-.214.125-.555.254-.926.122-.379.29-.824.508-1.29.218-.467.487-.963.802-1.476.32-.506.688-1.014,1.109-1.508.422-.49.883-.99,1.399-1.43.516-.442,1.07-.867,1.659-1.247.583-.39,1.211-.721,1.857-1.009.647-.287,1.313-.535,1.981-.741.655-.215,1.39-.338,2.073-.436.693-.093,1.374-.139,2.028-.14.66-.019,1.272.07,1.841.171c1.148.206,2.16.535,2.892.835.362.14.667.308.867.397.208.101.321.17.321.17Z" fill="#313439"/><path d="M178.498,689.403c0,0-.147.021-.403.034-.249.001-.641.045-1.085.047-.455.013-.966-.001-1.552-.021-.59-.021-1.229-.073-1.9-.156-.658-.102-1.386-.181-2.107-.328-.727-.139-1.456-.337-2.2-.548-.753-.197-1.504-.439-2.241-.729-.368-.146-.737-.295-1.098-.464-.369-.151-.737-.304-1.101-.466-.725-.331-1.432-.698-2.114-1.103-.675-.424-1.35-.798-1.987-1.224-.637-.423-1.242-.878-1.808-1.352-.283-.237-.558-.477-.819-.725-.266-.231-.53-.437-.777-.663-.992-.889-1.806-1.803-2.372-2.517-.286-.348-.5-.682-.653-.883-.15-.213-.227-.344-.227-.344s.126-.071.357-.173c.229-.091.574-.26,1.001-.399.858-.3,2.08-.62,3.53-.795.364-.047.736-.07,1.128-.104.379-.006.769.006,1.167.026.797.043,1.629.133,2.48.272.848.144,1.727.307,2.555.617.838.287,1.675.623,2.494.994.405.195.817.378,1.207.598.388.223.765.463,1.137.704.742.484,1.447,1.005,2.104,1.544.65.552,1.234,1.156,1.77,1.744.535.59,1.009,1.187,1.412,1.789.402.602.746,1.178,1.027,1.712.282.541.501,1.056.661,1.482.169.421.256.796.326,1.035.064.251.088.396.088.396Z" fill="#313439"/><path d="M88.955,668.209c0,0,.065-.113.191-.294.128-.17.31-.457.552-.745.483-.6,1.186-1.352,2.057-2.055.871-.705,1.909-1.371,3.05-1.877.563-.257,1.164-.475,1.826-.63.649-.161,1.315-.282,1.987-.361.673-.07,1.345-.114,2.018-.09.681.046,1.354.147,2.001.285s1.273.316,1.855.532c.559.229,1.089.51,1.577.781.977.561,1.791,1.197,2.36,1.717.285.25.509.506.661.654.153.16.234.263.234.263s-.079.107-.226.271c-.147.152-.363.416-.639.674-.55.537-1.336,1.197-2.278,1.787-.472.287-.982.584-1.522.829-.517.267-1.048.507-1.6.706-.55.197-1.116.362-1.693.473-.581.138-1.18.258-1.779.324-.601.065-1.206.087-1.809.067-.591-.025-1.22-.075-1.843-.158-1.235-.168-2.415-.521-3.444-.957-1.03-.435-1.911-.961-2.538-1.403-.312-.21-.565-.436-.734-.563-.171-.138-.264-.23-.264-.23Z" fill="#313439"/><path d="M93.958,639.75c0,0,.123-.067.342-.162.215-.085.544-.246.937-.379.794-.283,1.894-.59,3.149-.769c1.256-.181,2.67-.24,4.117-.106.722.058,1.46.178,2.202.367.739.181,1.478.404,2.201.669c1.444.536,2.834,1.227,4.06,2.053.604.419,1.172.866,1.694,1.329.524.457.994.952,1.422,1.418.424.478.798.947,1.118,1.395.319.451.585.873.792,1.242.212.358.355.696.462.902.103.216.151.348.151.348s-.127.061-.352.145c-.221.074-.559.219-.958.331-.805.242-1.916.501-3.175.632-.625.057-1.297.105-1.981.094-.686-.007-1.392-.056-2.104-.149-1.425-.157-2.864-.512-4.248-1.023-1.393-.512-2.678-1.21-3.924-1.986-1.229-.779-2.312-1.692-3.196-2.604-.886-.909-1.57-1.825-2.025-2.535-.231-.345-.393-.674-.512-.873-.116-.21-.172-.339-.172-.339Z" fill="#313439"/><path d="M121.943,618.971c0,0,.135.036.358.118.213.088.561.199.934.376.767.343,1.769.88,2.793,1.616.506.368,1.039.772,1.536,1.301.503.511.997,1.076,1.469,1.687.237.305.464.623.688.948.202.338.403.683.59,1.037.372.712.729,1.44,1.011,2.212.259.789.48,1.593.65,2.393.156.803.208,1.614.243,2.396.033.785-.052,1.508-.136,2.219-.083.717-.254,1.349-.413,1.955-.173.604-.371,1.176-.563,1.668-.197.5-.393.945-.582,1.32-.176.373-.372.683-.48.889-.119.208-.2.324-.2.324s-.122-.066-.318-.201c-.186-.136-.495-.328-.815-.594-.333-.263-.705-.593-1.102-.983-.401-.394-.791-.833-1.194-1.328-.387-.491-.794-1.052-1.157-1.591-.373-.541-.697-1.155-1.03-1.724-.332-.572-.611-1.173-.88-1.779-.288-.599-.534-1.217-.741-1.849-.227-.636-.456-1.285-.619-1.945-.085-.329-.155-.662-.22-.995-.075-.332-.15-.66-.206-.992-.117-.663-.19-1.328-.226-1.984-.024-.647-.05-1.324-.061-1.951-.001-1.26.146-2.386.315-3.207.075-.405.188-.753.241-.977.065-.229.115-.359.115-.359Z" fill="#313439"/><path d="M143.754,621.441c0,0,.055.122.127.336.063.209.189.533.281.911.203.766.4,1.812.457,2.977.017.581.027,1.203.033,1.802-.005.607-.046,1.221-.13,1.832-.078.619-.22,1.196-.369,1.834-.157.624-.354,1.24-.59,1.842-.502,1.19-1.058,2.359-1.812,3.386-.373.516-.74,1.012-1.15,1.468-.396.46-.852.876-1.253,1.266-.835.771-1.697,1.386-2.355,1.81-.322.215-.635.371-.818.485-.196.112-.319.17-.319.17s-.08-.105-.197-.301c-.108-.193-.296-.486-.461-.843-.175-.358-.363-.795-.531-1.282-.168-.486-.319-1.029-.448-1.617-.122-.587-.21-1.208-.25-1.855-.037-.647-.053-1.326.013-2.001.064-.677.167-1.366.327-2.05.149-.686.371-1.359.636-2.016.266-.657.572-1.297.911-1.909.322-.61.765-1.209,1.188-1.755.434-.548.893-1.054,1.362-1.51.462-.472.964-.833,1.444-1.156.969-.648,1.925-1.114,2.661-1.406.358-.152.694-.244.899-.318.214-.07.344-.1.344-.1Z" fill="#313439"/><path d="M87.09,689.795c0,0,.028-.147.1-.398.076-.242.171-.624.351-1.052.17-.435.401-.953.696-1.508.295-.544.653-1.13,1.071-1.743.833-1.231,1.966-2.446,3.283-3.623.677-.553,1.403-1.09,2.167-1.59.763-.5,1.554-.985,2.405-1.361.844-.387,1.704-.739,2.567-1.044.435-.146.859-.3,1.3-.406.446-.1.887-.193,1.326-.268.876-.154,1.735-.258,2.557-.313.411-.028.811-.046,1.203-.047.395.009.787.042,1.16.08c1.499.157,2.758.463,3.642.754.439.135.795.301,1.03.389.237.099.367.169.367.169s-.081.132-.237.348c-.16.204-.383.541-.68.892-.589.725-1.433,1.65-2.459,2.552-.511.44-1.063.919-1.648,1.424-.586.485-1.211.952-1.871,1.387-.329.221-.668.426-1.013.631-.342.213-.689.429-1.039.646-.705.419-1.438.802-2.187,1.15-.759.324-1.508.683-2.271.99s-1.539.564-2.316.779c-.762.242-1.521.447-2.269.606s-1.491.262-2.169.376c-.691.097-1.348.161-1.954.192-.598.034-1.127.056-1.593.051-.455.005-.855-.033-1.109-.03-.26-.013-.41-.033-.41-.033Z" fill="#313439"/></g><clipPath id="e74gEH9uTYC128"><use width="69.293236" height="84.838989" xlink:href="#e74gEH9uTYC2"/></clipPath></g></g><path d="M125.513,694.25c0,2.584-2.094,4.681-4.68,4.681-2.585,0-4.681-2.097-4.681-4.681c0-2.585,2.095-4.683,4.681-4.683c2.585,0,4.68,2.098,4.68,4.683Z" fill="#f7f1e6"/><path d="M151.91,694.25c0,2.584-2.097,4.681-4.682,4.681s-4.68-2.097-4.68-4.681c0-2.585,2.095-4.683,4.68-4.683s4.682,2.098,4.682,4.683Z" fill="#f7f1e6"/></g><g><g><g><g><path d="M321.208,627.224c-3.528,15.917-2.12,29.766,3.142,30.931c5.263,1.166,12.388-10.792,15.915-26.707c3.527-15.917-3.143-30.932-3.143-30.932s-12.388,10.791-15.914,26.708Z" fill="#8a603c"/></g><g><path d="M324.845,627.808c-2.551,11.513-2.533,21.528,1.272,22.373c3.808.843,7.961-7.807,10.512-19.318c2.551-11.512-1.273-22.371-1.273-22.371s-7.961,7.803-10.511,19.316Z" fill="#f3dbbd"/></g></g><g><g><path d="M300.801,627.224c3.527,15.917,2.121,29.766-3.142,30.931-5.262,1.166-12.388-10.792-15.915-26.707-3.526-15.917,3.143-30.932,3.143-30.932s12.388,10.791,15.914,26.708Z" fill="#8a603c"/></g><g><path d="M297.165,627.808c2.551,11.513,2.533,21.528-1.273,22.373-3.807.843-7.96-7.807-10.511-19.318-2.55-11.512,1.272-22.371,1.272-22.371s7.961,7.803,10.512,19.316Z" fill="#f3dbbd"/></g></g></g><path d="M341.898,673.429c1.362-22.148-12.956-38.903-30.893-39.171-17.936.268-32.255,17.022-30.892,39.171.547,8.901-2.157,17.794-2.157,25.049s7.161,14.586,32.303,14.586c.252,0,.499-.003.745-.005.248.002.494.005.746.005c25.143,0,32.304-7.331,32.304-14.586s-2.705-16.148-2.156-25.049Z" fill="#966a4d"/><path d="M311.475,681.309c-.156,0-.314.002-.471.003-.157-.001-.314-.003-.471-.003-17.992,0-32.576,7.722-32.576,17.246c0,9.525,14.585,17.246,32.576,17.246.157,0,.314-.002.471-.003.157.001.314.003.471.003c17.991,0,32.577-7.721,32.577-17.246s-14.586-17.246-32.577-17.246Z" fill="#313439"/><g><g><path d="M319.023,665.581c0,2.42,1.961,4.381,4.38,4.381c2.418,0,4.379-1.961,4.379-4.381c0-2.419-1.961-4.381-4.379-4.381-2.419,0-4.38,1.962-4.38,4.381Z" fill="#3b3e43"/></g><g><path d="M323.1,662.053c0,1.545,1.252,2.799,2.797,2.799c1.546,0,2.798-1.254,2.798-2.799c0-1.546-1.252-2.799-2.798-2.799-1.545,0-2.797,1.253-2.797,2.799Z" fill="#fff"/></g></g><g><path d="M318.475,694.569c0,2.42,1.961,4.38,4.38,4.38c2.418,0,4.381-1.96,4.381-4.38c0-2.419-1.963-4.381-4.381-4.381-2.42,0-4.38,1.962-4.38,4.381Z" fill="#f3dbbd"/></g><g><g><path d="M302.987,665.581c0,2.42-1.96,4.381-4.38,4.381s-4.381-1.961-4.381-4.381c0-2.419,1.961-4.381,4.381-4.381c2.419,0,4.38,1.962,4.38,4.381Z" fill="#3b3e43"/></g><g><path d="M298.912,662.053c0,1.545-1.254,2.799-2.799,2.799-1.546,0-2.8-1.254-2.8-2.799c0-1.546,1.254-2.799,2.8-2.799c1.544,0,2.799,1.253,2.799,2.799Z" fill="#fff"/></g></g><g><path d="M303.534,694.569c0,2.42-1.961,4.38-4.379,4.38-2.419,0-4.381-1.96-4.381-4.38c0-2.419,1.962-4.381,4.381-4.381c2.417,0,4.379,1.962,4.379,4.381Z" fill="#f3dbbd"/></g></g><g><path d="M715.233,313.377c0,22.71-20.576,41.12-45.958,41.12s-45.96-18.41-45.96-41.12s20.578-41.12,45.96-41.12s45.958,18.411,45.958,41.12Z" fill="#f7a99b"/><path d="M693.463,330.954c0,8.549-10.612,15.481-23.704,15.481-13.093,0-23.704-6.932-23.704-15.481s10.611-15.48,23.704-15.48c13.092,0,23.704,6.931,23.704,15.48Z" fill="#d69488"/><g><path d="M677.532,304.027c0,4.698,3.808,8.507,8.506,8.507c4.699,0,8.507-3.809,8.507-8.507s-3.808-8.507-8.507-8.507c-4.698,0-8.506,3.809-8.506,8.507Z" fill="#d69488"/><g><path d="M680.633,304.096c0,2.794,2.266,5.06,5.061,5.06s5.061-2.266,5.061-5.06c0-2.795-2.266-5.061-5.061-5.061-2.796,0-5.061,2.266-5.061,5.061Z" fill="#3d342f"/><path d="M684.971,299.918c0,1.332,1.079,2.41,2.409,2.41c1.332,0,2.411-1.079,2.411-2.41c0-1.332-1.079-2.41-2.411-2.41-1.33,0-2.409,1.079-2.409,2.41Z" fill="#fff"/></g></g><g><path d="M664.048,304.027c0,4.698-3.809,8.507-8.509,8.507-4.697,0-8.505-3.809-8.505-8.507s3.808-8.507,8.505-8.507c4.7,0,8.509,3.809,8.509,8.507Z" fill="#d69488"/><g><path d="M660.945,304.096c0,2.794-2.266,5.06-5.06,5.06-2.796,0-5.062-2.266-5.062-5.06c0-2.795,2.266-5.061,5.062-5.061c2.795,0,5.06,2.266,5.06,5.061Z" fill="#3d342f"/><path d="M656.606,299.918c0,1.332-1.078,2.41-2.408,2.41-1.332,0-2.41-1.079-2.41-2.41c0-1.332,1.078-2.41,2.41-2.41c1.33,0,2.408,1.079,2.408,2.41Z" fill="#fff"/></g></g><path d="M665.643,331.276c0,2.36-1.913,4.274-4.273,4.274-2.359,0-4.273-1.914-4.273-4.274s1.914-4.273,4.273-4.273c2.359-.001,4.273,1.913,4.273,4.273Z" fill="#3d342f"/><path d="M683.275,331.491c0,2.36-1.914,4.274-4.273,4.274-2.361,0-4.275-1.914-4.275-4.274c0-2.359,1.913-4.273,4.275-4.273c2.359,0,4.273,1.913,4.273,4.273Z" fill="#3d342f"/><g><path d="M714.841,291.363c-6.06,5.443-15.225,5.123-20.467-.715s-4.579-14.983,1.48-20.426c6.063-5.442,27.746-7.161,28.716-6.083.968,1.078-3.668,21.78-9.729,27.224Z" fill="#f7a99b"/><path d="M712.746,287.395c-4.204,3.776-10.56,3.554-14.198-.496-3.638-4.049-3.178-10.394,1.029-14.169c4.204-3.775,19.246-4.968,19.918-4.219.672.746-2.545,15.108-6.749,18.884Z" fill="#d69488"/></g><g><path d="M623.48,291.363c6.061,5.443,15.225,5.123,20.467-.715c5.243-5.838,4.578-14.983-1.482-20.426-6.06-5.442-27.745-7.161-28.713-6.083-.969,1.078,3.667,21.78,9.728,27.224Z" fill="#f7a99b"/><path d="M625.575,287.395c4.204,3.776,10.56,3.554,14.196-.496c3.638-4.049,3.178-10.394-1.025-14.169-4.206-3.775-19.25-4.968-19.92-4.219-.673.746,2.544,15.108,6.749,18.884Z" fill="#d69488"/></g></g><g><g><path d="M667.551,639.193c0,0-.957,30.057-6.354,30.681-5.396.623-13.188-28.422-13.188-28.422s-10.419-39.021,6.446-40.193c16.865-1.171,13.096,37.934,13.096,37.934Z" fill="#8a603c"/><path d="M664.849,639.504c0,0-.693,21.742-4.597,22.192-3.903.451-9.538-20.558-9.538-20.558s-7.323-33.37,4.673-34.202c11.995-.834,9.462,32.568,9.462,32.568Z" fill="#f3dbbd"/></g><g><path d="M674.492,639.193c0,0,.957,30.057,6.352,30.681c5.397.623,13.189-28.422,13.189-28.422s10.421-39.021-6.445-40.193c-16.865-1.171-13.096,37.934-13.096,37.934Z" fill="#8a603c"/><path d="M677.194,639.504c0,0,.692,21.742,4.596,22.192c3.904.451,9.539-20.558,9.539-20.558s7.323-33.37-4.672-34.202c-11.996-.834-9.463,32.568-9.463,32.568Z" fill="#f3dbbd"/></g><path d="M700.23,687.462c4.966,7.727,8.407,27.621-30.374,27.621-38.783,0-32.161-20.815-28.849-27.804-1.387-22.503,11.756-39.852,30.039-39.852c18.285,0,29.922,16.886,29.184,40.035Z" fill="#966a4d"/><g><g><clipPath><use width="62.501221" height="65.448975" xlink:href="#e74gEH9uTYC3"/></clipPath></g></g><g><path d="M675.963,673.979c0,3.479,2.821,6.301,6.301,6.301c3.479,0,6.3-2.821,6.3-6.301s-2.821-6.3-6.3-6.3c-3.48.001-6.301,2.821-6.301,6.3Z" fill="#f3dbbd"/><g><path d="M678.26,674.03c0,2.07,1.679,3.748,3.749,3.748c2.068,0,3.746-1.678,3.746-3.748s-1.678-3.747-3.746-3.747c-2.071,0-3.749,1.677-3.749,3.747Z" fill="#3d342f"/><path d="M681.472,670.938c0,.985.801,1.784,1.785,1.784.986,0,1.785-.799,1.785-1.784c0-.986-.799-1.785-1.785-1.785-.985-.001-1.785.798-1.785,1.785Z" fill="#fff"/></g></g><g><path d="M666.897,673.611c0,3.479-2.819,6.3-6.3,6.3-3.479,0-6.299-2.82-6.299-6.3c0-3.479,2.82-6.299,6.299-6.299c3.481.001,6.3,2.821,6.3,6.299Z" fill="#f3dbbd"/><g><path d="M663.682,674.03c0,2.07-1.678,3.748-3.748,3.748-2.069,0-3.746-1.678-3.746-3.748s1.677-3.747,3.746-3.747c2.07,0,3.748,1.677,3.748,3.747Z" fill="#3d342f"/><path d="M660.47,670.938c0,.985-.8,1.784-1.785,1.784-.986,0-1.785-.799-1.785-1.784c0-.986.799-1.785,1.785-1.785.985-.001,1.785.798,1.785,1.785Z" fill="#fff"/></g></g><g><g clip-path="url(#e74gEH9uTYC206)"><path d="M688.704,685.625c-6.54,0-12.686,1.691-18.024,4.659-5.339-2.968-11.483-4.659-18.024-4.659-20.521,0-37.153,14.057-37.153,34.577s16.633,37.154,37.153,37.154c6.541,0,12.685-1.693,18.024-4.66c5.339,2.967,11.484,4.66,18.024,4.66c20.519,0,37.153-16.635,37.153-37.154c0-20.52-16.633-34.577-37.153-34.577Z" fill="#f3dbbd"/><clipPath id="e74gEH9uTYC206"><use width="64.801697" height="67.656006" xlink:href="#e74gEH9uTYC4"/></clipPath></g></g><path d="M678.282,690.227c0,2.377-5.068,6.081-7.096,6.081-2.027,0-8.109-3.704-8.109-6.081c0-2.38,3.404-4.31,7.603-4.31c4.198,0,7.602,1.93,7.602,4.31Z" fill="#3d342f"/><g><g><path d="M663.34,704.951c-1.966,0-4.147-.972-6.505-2.9-.315-.259-.36-.722-.105-1.037.257-.313.721-.359,1.036-.103c2.758,2.258,5.136,3.03,7.063,2.298c3.84-1.46,4.977-8.332,4.987-8.401.064-.401.439-.677.843-.611.401.064.675.44.611.842-.051.318-1.291,7.785-5.919,9.546-.642.245-1.312.366-2.011.366Z" fill="#3d342f"/><path d="M676.999,705.595c-.607,0-1.19-.11-1.747-.334-4.4-1.761-5.224-9.921-5.257-10.267-.039-.405.257-.763.661-.802.404-.042.765.257.804.661.202,2.114,1.378,7.858,4.34,9.043c1.625.651,3.696-.102,6.155-2.235.308-.265.771-.233,1.037.073.267.307.235.773-.073,1.039-2.165,1.878-4.15,2.822-5.92,2.822Z" fill="#3d342f"/></g></g><g><path d="M687.418,695.004c0,0,6.008-5.885,23.663-8.584" fill="none" stroke="#3d342f" stroke-width="2" stroke-linecap="round" stroke-miterlimit="10"/><path d="M688.434,697.271c0,0,7.3-4.178,25.066-2.326" fill="none" stroke="#3d342f" stroke-width="2" stroke-linecap="round" stroke-miterlimit="10"/><path d="M688.737,700.071c0,0,8.051-2.433,24.948,3.354" fill="none" stroke="#3d342f" stroke-width="2" stroke-linecap="round" stroke-miterlimit="10"/></g><g><path d="M650.905,694.268c0,0-6.008-5.886-23.664-8.581" fill="none" stroke="#3d342f" stroke-width="2" stroke-linecap="round" stroke-miterlimit="10"/><path d="M649.889,696.534c0,0-7.3-4.177-25.065-2.325" fill="none" stroke="#3d342f" stroke-width="2" stroke-linecap="round" stroke-miterlimit="10"/><path d="M649.585,699.334c0,0-8.051-2.431-24.949,3.356" fill="none" stroke="#3d342f" stroke-width="2" stroke-linecap="round" stroke-miterlimit="10"/></g></g><g><path d="M540.192,131.473c19.829,36.667-8.315,48.511-53.977,48.511-52.012,0-61.608-14.716-48.406-48.92c11.328-29.352,31.412-32.957,49.435-32.957c18.024-.001,38.698,7.016,52.948,33.366Z" fill="#e0dcd3"/><g><path d="M536.484,157.583c-4.699,7.795-17.155,9.913-31.831,11.457-7.795-4.696-9.348-32.429-7.427-41.324c2.061-9.526,11.503-16.821,24.075-6.903c7.147,5.635,19.881,28.976,15.183,36.77Z" fill="#bab7b0"/><path d="M442.483,158.87c4.696,7.795,23.719,10.042,33.115,11.071c7.797-4.696,10.602-31.541,8.111-43.641-1.832-8.915-15.318-18.539-27.42-5.279-12.101,13.261-18.505,30.055-13.806,37.849Z" fill="#bab7b0"/></g><g><g><path d="M505.571,135.487c0,4.594,3.725,8.315,8.316,8.315s8.314-3.722,8.314-8.315c0-4.592-3.723-8.315-8.314-8.315s-8.316,3.723-8.316,8.315Z" fill="#fff"/><g><path d="M509.679,135.558c0,2.325,1.883,4.208,4.209,4.208c2.324,0,4.208-1.884,4.208-4.208c0-2.325-1.884-4.208-4.208-4.208-2.327,0-4.209,1.882-4.209,4.208Z" fill="#3b3e43"/><path d="M512.94,132.251c0,1.22.988,2.21,2.21,2.21c1.221,0,2.211-.99,2.211-2.21c0-1.221-.99-2.21-2.211-2.21-1.222.001-2.21.989-2.21,2.21Z" fill="#fff"/></g></g><g><path d="M473.438,133.382c0,4.593-3.723,8.316-8.315,8.316s-8.316-3.723-8.316-8.316c0-4.591,3.724-8.316,8.316-8.316s8.315,3.726,8.315,8.316Z" fill="#fff"/><g><path d="M469.331,133.454c0,2.324-1.884,4.208-4.209,4.208-2.323,0-4.209-1.884-4.209-4.208c0-2.326,1.886-4.21,4.209-4.21c2.325,0,4.209,1.884,4.209,4.21Z" fill="#3b3e43"/><path d="M466.071,130.147c0,1.221-.99,2.209-2.212,2.209-1.22,0-2.209-.988-2.209-2.209c0-1.222.989-2.212,2.209-2.212c1.222.001,2.212.99,2.212,2.212Z" fill="#fff"/></g></g></g><path d="M516.554,160.159c0,8.531-16.004,15.447-29.832,15.447s-25.037-6.916-25.037-15.447c0-8.533,11.209-15.45,25.037-15.45s29.832,6.917,29.832,15.45Z" fill="#fff"/><g><path d="M499.507,159.13c0,3.986-4.652,8.946-10.389,8.946s-10.387-4.96-10.387-8.946c0-3.984,4.65-7.214,10.387-7.214c5.736,0,10.389,3.23,10.389,7.214Z" fill="#3b3e43"/><path d="M495.885,156.97c-.242.957-1.66,1.421-3.167,1.038-1.505-.383-2.528-1.467-2.287-2.423.244-.957,1.662-1.42,3.168-1.038c1.505.383,2.529,1.467,2.286,2.423Z" fill="#fff"/></g><g><g><path d="M448.093,88.15c-7.553,3.646.275,27.806.275,27.806l25.585-15.09c0,0-18.306-16.363-25.86-12.716Z" fill="#e0dcd3"/><path d="M451.175,91.688c-5.074,2.45.188,18.683.188,18.683l17.19-10.138c0,0-12.302-10.995-17.378-8.545Z" fill="#bab7b0"/></g><g><path d="M530.917,88.15c7.552,3.646-.276,27.806-.276,27.806l-25.583-15.09c0,0,18.306-16.363,25.859-12.716Z" fill="#e0dcd3"/><path d="M527.833,91.688c5.076,2.45-.184,18.683-.184,18.683l-17.191-10.138c0,0,12.302-10.995,17.375-8.545Z" fill="#bab7b0"/></g></g></g><g><path d="M475.5,281.867c.663,8.296-25.365,37.262-25.365,37.262s.388-.615.388-34.676c.432-13.911,11.503-28.673,12.938-29.082s11.376,18.198,12.039,26.496Z" fill="#825d42"/><path d="M504.064,280.842c-.663,8.296,25.364,37.262,25.364,37.262s-.387-.615-.387-34.675c-.433-13.912-11.504-28.673-12.938-29.083-1.434-.409-11.376,18.199-12.039,26.496Z" fill="#825d42"/><path d="M529.67,323.963c1.854,26.942-16.186,40.027-41.301,40.027-25.114,0-43.257-14.93-38.328-48.893c3.497-24.099,14.423-39.567,41.42-39.567c33.298,0,36.639,25.613,38.209,48.433Z" fill="#966a4d"/><g><g clip-path="url(#e74gEH9uTYC255)"><path d="M490.471,324.613c-9.994,0-27.011,15.325-30.7,41.258-3.37,23.692,62.003,20.325,59.247-2.664-2.162-18.039-18.553-38.594-28.547-38.594Z" fill="#f3dbbd"/><clipPath id="e74gEH9uTYC255"><use width="80.501709" height="86.615021" xlink:href="#e74gEH9uTYC5"/></clipPath></g></g><g><path d="M501.967,310.337c0,5.817,4.716,10.533,10.534,10.533c5.817,0,10.532-4.715,10.532-10.533c0-5.817-4.715-10.532-10.532-10.532-5.818,0-10.534,4.716-10.534,10.532Z" fill="#f3dbbd"/><g><path d="M505.809,310.424c0,3.461,2.806,6.265,6.267,6.265c3.459,0,6.266-2.804,6.266-6.265s-2.807-6.266-6.266-6.266c-3.462,0-6.267,2.804-6.267,6.266Z" fill="#3d342f"/><path d="M511.179,305.251c0,1.648,1.336,2.984,2.982,2.984c1.65,0,2.986-1.336,2.986-2.984s-1.336-2.984-2.986-2.984c-1.646.001-2.982,1.336-2.982,2.984Z" fill="#fff"/></g></g><g><path d="M478.815,311.26c0,5.818-4.714,10.533-10.531,10.533s-10.533-4.715-10.533-10.533c0-5.817,4.716-10.532,10.533-10.532c5.818,0,10.531,4.715,10.531,10.532Z" fill="#f3dbbd"/><g><path d="M473.438,311.961c0,3.46-2.805,6.265-6.266,6.265-3.462,0-6.268-2.805-6.268-6.265c0-3.461,2.806-6.266,6.268-6.266s6.266,2.805,6.266,6.266Z" fill="#3d342f"/><path d="M468.068,306.789c0,1.647-1.337,2.984-2.985,2.984s-2.982-1.336-2.982-2.984s1.335-2.984,2.982-2.984c1.648,0,2.985,1.336,2.985,2.984Z" fill="#fff"/></g></g><g><path d="M502.104,334.71c0,2.371-9.145,6.177-12.325,6.177-3.182,0-12.722-3.689-12.722-6.061c0-2.37,5.34-4.293,11.927-4.293c6.585.001,13.12,1.806,13.12,4.177Z" fill="#3d342f"/><path d="M489.963,357.995c-6.91,0-11.988-4.23-12.064-4.295-.388-.33-.434-.913-.103-1.3.331-.388.912-.434,1.299-.104v0c.411.348,10.166,8.421,20.77.26.403-.31.984-.235,1.294.168.312.404.234.983-.169,1.294-3.866,2.974-7.665,3.977-11.027,3.977Z" fill="#3d342f"/><rect width="2.31" height="19.372" rx="0" ry="0" transform="translate(488.694 338.4)" fill="#3d342f"/></g></g><g><g><path d="M118.94,455.035c4.195,4.489,3.678,11.792-1.158,16.311-4.833,4.52-12.157,4.542-16.354.053-4.194-4.49-4.92-21.563-4.92-21.563s18.238.71,22.432,5.199Z" fill="#8a603c"/><path d="M115.746,457.99c2.654,2.839,2.325,7.458-.732,10.315-3.059,2.856-7.688,2.873-10.341.034-2.654-2.84-3.113-13.638-3.113-13.638s11.532.449,14.186,3.289Z" fill="#c2986b"/></g><g><path d="M145.331,455.394c-4.196,4.49-3.677,11.793,1.159,16.311c4.835,4.52,12.155,4.543,16.352.051c4.196-4.487,4.923-21.564,4.923-21.564s-18.238.71-22.434,5.202Z" fill="#8a603c"/><path d="M148.526,458.349c-2.654,2.839-2.327,7.458.732,10.315c3.058,2.857,7.686,2.872,10.34.032c2.654-2.839,3.114-13.637,3.114-13.637s-11.533.45-14.186,3.29Z" fill="#c2986b"/></g><g><path d="M128.281,464.617c-.08,0-.16-.005-.241-.014-1.177-.131-2.027-1.191-1.896-2.37.003-.033.356-3.259.323-6.713-.051-5.342-.946-6.739-1.174-7.008-2.74-.004-10.659-.113-17.659-.211-5.399-.076-10.5-.147-11.745-.147-.886,0-1.728-.375-2.371-1.059-2.295-2.441-2.107-9.924-1.919-13.027.071-1.185,1.093-2.087,2.273-2.014c1.184.07,2.085,1.09,2.014,2.272-.239,3.982.043,8.168.61,9.535c1.845.014,6.222.076,11.199.145c7.091.1,15.127.211,17.719.211c1.178,0,2.237.489,3.064,1.412c3.162,3.533,2.279,13.966,1.933,17.076-.121,1.1-1.052,1.912-2.13,1.912Z" fill="#e0dcd3"/><path d="M105.193,448.334c-1.166,0-2.122-.934-2.146-2.105l-.18-8.947c-.023-1.185.92-2.166,2.104-2.189.015,0,.029,0,.045,0c1.165,0,2.121.933,2.145,2.103l.179,8.947c.025,1.186-.918,2.166-2.103,2.189-.014.002-.03.002-.044.002Z" fill="#e0dcd3"/><path d="M115.75,448.154c-1.157,0-2.111-.919-2.145-2.084l-.179-6.083c-.035-1.186.897-2.175,2.083-2.21c1.197-.035,2.175.897,2.21,2.082l.178,6.085c.035,1.187-.898,2.176-2.082,2.21-.022,0-.044,0-.065,0Z" fill="#e0dcd3"/></g><g><path d="M137.122,464.797c-1.08,0-2.01-.813-2.131-1.911-.347-3.113-1.229-13.544,1.933-17.076.827-.923,1.888-1.413,3.066-1.413c2.592,0,10.628-.112,17.72-.21c4.974-.07,9.352-.131,11.196-.146.561-1.371.849-5.625.61-9.534-.071-1.185.831-2.202,2.015-2.273c1.186-.065,2.201.829,2.273,2.013.188,3.105.377,10.588-1.919,13.028-.643.684-1.485,1.06-2.372,1.06-1.243,0-6.346.071-11.745.146-6.998.098-14.916.208-17.657.212-.229.27-1.127,1.672-1.174,7.044-.029,3.451.319,6.643.323,6.676.131,1.178-.718,2.239-1.898,2.37-.08.009-.16.014-.24.014Z" fill="#e0dcd3"/><path d="M160.208,448.513c-.014,0-.028,0-.043-.001-1.186-.023-2.13-1.003-2.104-2.188l.18-8.948c.023-1.185.999-2.136,2.189-2.103c1.185.023,2.128,1.004,2.104,2.189l-.179,8.947c-.024,1.17-.979,2.104-2.147,2.104Z" fill="#e0dcd3"/><path d="M149.652,448.334c-.021,0-.043-.001-.064-.001-1.186-.035-2.118-1.024-2.083-2.211l.179-6.083c.035-1.186,1.009-2.122,2.209-2.083c1.186.035,2.119,1.024,2.084,2.21l-.18,6.084c-.035,1.164-.988,2.084-2.145,2.084Z" fill="#e0dcd3"/></g><path d="M158.812,496.292c1.278-21.698-10.448-38.115-27.226-38.405v-.001c-.007,0-.012.001-.017.001-.006,0-.012-.001-.018-.001v.001c-16.776.29-28.502,16.707-27.226,38.405.516,8.729-14.966,37.097,26.804,37.097.146,0,.292-.002.439-.002.146,0,.292.002.439.002c41.771,0,26.29-28.368,26.805-37.097Z" fill="#8a603c"/><path d="M155.655,516.633c0,7.246-10.657,13.119-23.804,13.119-13.145,0-23.802-5.873-23.802-13.119c0-7.247,10.657-13.12,23.802-13.12c13.147,0,23.804,5.873,23.804,13.12Z" fill="#3b3e43"/><g><path d="M124.358,488.599c0,2.37-1.923,4.294-4.295,4.294-2.371,0-4.294-1.924-4.294-4.294c0-2.373,1.923-4.296,4.294-4.296c2.372,0,4.295,1.923,4.295,4.296Z" fill="#3b3e43"/><path d="M120.362,485.138c0,1.515-1.229,2.743-2.744,2.743-1.516,0-2.744-1.229-2.744-2.743c0-1.516,1.229-2.744,2.744-2.744c1.514,0,2.744,1.228,2.744,2.744Z" fill="#fff"/></g><g><path d="M138.553,488.597c0,2.372,1.923,4.296,4.295,4.296c2.371,0,4.294-1.924,4.294-4.296c0-2.371-1.923-4.294-4.294-4.294-2.372,0-4.295,1.923-4.295,4.294Z" fill="#3b3e43"/><path d="M142.551,485.138c0,1.515,1.227,2.743,2.741,2.743c1.517,0,2.745-1.229,2.745-2.743c0-1.516-1.229-2.744-2.745-2.744-1.514,0-2.741,1.228-2.741,2.744Z" fill="#fff"/></g></g><g><path d="M725.804,135.941c0,31.282-26.726,52.366-56.412,52.366-29.687,0-56.874-21.084-56.874-52.366c0-31.285,25.358-56.644,56.643-56.644c31.281,0,56.643,25.359,56.643,56.644Z" fill="#ea692b"/><g><path d="M662.695,111.465c0,8.844-7.171,16.015-16.014,16.015-8.846,0-16.016-7.17-16.016-16.015c0-8.846,7.17-16.015,16.016-16.015c8.843.001,16.014,7.17,16.014,16.015Z" fill="#e39335"/><path d="M656.291,111.465c0,5.307-4.303,9.608-9.609,9.608-5.308,0-9.61-4.301-9.61-9.608c0-5.308,4.303-9.609,9.61-9.609c5.306,0,9.609,4.302,9.609,9.609Z" fill="#8a603c"/></g><g><path d="M674.398,111.465c0,8.844,7.172,16.015,16.014,16.015c8.847,0,16.016-7.17,16.016-16.015c0-8.846-7.169-16.015-16.016-16.015-8.842.001-16.014,7.17-16.014,16.015Z" fill="#e39335"/><path d="M680.805,111.465c0,5.307,4.303,9.608,9.607,9.608c5.309,0,9.611-4.301,9.611-9.608c0-5.308-4.303-9.609-9.611-9.609-5.305,0-9.607,4.302-9.607,9.609Z" fill="#8a603c"/></g><path d="M701.281,136.708c-4.735-23.885-11.942-30.329-32.461-30.329-.092,0-.183.003-.272.003-.091,0-.181-.003-.272-.003-20.52,0-27.728,6.444-32.462,30.329-7.101,9.477-6.051,38.361,31.102,38.361.552,0,1.093-.005,1.632-.013.537.008,1.079.013,1.632.013c37.153,0,38.202-28.884,31.101-38.361Z" fill="#e39335"/><g><g clip-path="url(#e74gEH9uTYC306)"><path d="M710.304,183.458c0,17.689-17.244,32.029-41.404,32.029-24.161,0-41.405-14.34-41.405-32.029s17.244-37.889,41.405-37.889c24.16.001,41.404,20.2,41.404,37.889Z" fill="#f3dbbd"/><clipPath id="e74gEH9uTYC306"><use width="72.346497" height="70.772995" xlink:href="#e74gEH9uTYC6"/></clipPath></g></g><g><g><path d="M657.692,133.395c0,3.483-2.823,6.306-6.306,6.306-3.484,0-6.309-2.823-6.309-6.306c0-3.484,2.824-6.309,6.309-6.309c3.483-.001,6.306,2.825,6.306,6.309Z" fill="#8a603c"/><g><path d="M654.579,133.448c0,1.763-1.43,3.191-3.192,3.191-1.763,0-3.193-1.429-3.193-3.191c0-1.763,1.431-3.193,3.193-3.193c1.762-.001,3.192,1.43,3.192,3.193Z" fill="#3b3e43"/><path d="M652.103,130.939c0,.926-.749,1.676-1.676,1.676-.925,0-1.676-.749-1.676-1.676s.751-1.677,1.676-1.677c.927,0,1.676.751,1.676,1.677Z" fill="#fff"/></g></g><g><path d="M676.985,148.068c0,2.921-3.41,5.387-7.616,5.387-4.208,0-7.618-2.465-7.618-5.387s3.41-5.29,7.618-5.29c4.206,0,7.616,2.368,7.616,5.29Z" fill="#3b3e43"/><g><path d="M661.428,163.564c-2.09,0-4.404-1.03-6.908-3.08-.334-.273-.384-.765-.11-1.099.272-.334.765-.384,1.1-.11c2.929,2.397,5.453,3.218,7.5,2.439c4.076-1.551,5.283-8.846,5.294-8.92.068-.426.47-.719.896-.648.426.067.716.467.648.893-.055.337-1.369,8.267-6.283,10.136-.685.26-1.398.389-2.137.389Z" fill="#3b3e43"/><path d="M675.931,164.25c-.646,0-1.266-.119-1.854-.355-4.672-1.87-5.548-10.535-5.584-10.903-.041-.429.273-.811.704-.852.429-.043.813.275.852.704.215,2.245,1.464,8.344,4.607,9.602c1.728.691,3.926-.109,6.538-2.373.326-.284.819-.249,1.102.077s.247.82-.077,1.102c-2.303,1.994-4.408,2.998-6.288,2.998Z" fill="#3b3e43"/></g><path d="M674.329,146.483c-.18.701-1.217,1.041-2.32.76-1.106-.28-1.856-1.075-1.679-1.776.181-.701,1.218-1.042,2.322-.761c1.105.282,1.856,1.076,1.677,1.777Z" fill="#fff"/></g><g><path d="M679.401,133.395c0,3.483,2.823,6.306,6.307,6.306s6.309-2.823,6.309-6.306c0-3.484-2.825-6.309-6.309-6.309s-6.307,2.825-6.307,6.309Z" fill="#8a603c"/><g><path d="M682.517,133.448c0,1.763,1.43,3.191,3.191,3.191c1.764,0,3.193-1.429,3.193-3.191c0-1.763-1.43-3.193-3.193-3.193-1.762-.001-3.191,1.43-3.191,3.193Z" fill="#3b3e43"/><path d="M684.99,130.939c0,.926.75,1.676,1.677,1.676.924,0,1.677-.749,1.677-1.676s-.753-1.677-1.677-1.677c-.927,0-1.677.751-1.677,1.677Z" fill="#fff"/></g></g></g><g><path d="M653.742,150.357c0,0-8.545-5.399-32.063-5.844" fill="none" stroke="#3d342f" stroke-width="2" stroke-linecap="round" stroke-miterlimit="10"/><path d="M652.653,152.89c0,0-10.058-3.418-33.22.955" fill="none" stroke="#3d342f" stroke-width="2" stroke-linecap="round" stroke-miterlimit="10"/><path d="M652.56,155.888c0,0-10.856-1.473-32.445,6.94" fill="none" stroke="#3d342f" stroke-width="2" stroke-linecap="round" stroke-miterlimit="10"/></g><g><path d="M684.144,151.139c0,0,8.545-5.399,32.063-5.846" fill="none" stroke="#3d342f" stroke-width="2" stroke-linecap="round" stroke-miterlimit="10"/><path d="M685.233,153.67c0,0,10.058-3.418,33.22.956" fill="none" stroke="#3d342f" stroke-width="2" stroke-linecap="round" stroke-miterlimit="10"/><path d="M685.326,156.669c0,0,10.855-1.474,32.444,6.94" fill="none" stroke="#3d342f" stroke-width="2" stroke-linecap="round" stroke-miterlimit="10"/></g></g><g><path d="M469.975,618.063c0-.056-.738-1.051-1.813-2.058-2.188-2.047-6.33-5.073-12.316-5.961-9.286-1.393-24.491,7.213-26.561,35.094-2.061,27.878,9.188,30.629,17.964,30.629c7.277,0,15.679-5.139,22.081-12.44c4.103-15.277.645-45.248.645-45.264Z" fill="#ccc8c0"/><path d="M509.767,618.393c0-.056.736-1.05,1.811-2.058c2.186-2.047,6.33-5.073,12.314-5.962c9.288-1.393,23.86,6.581,25.93,34.462c2.063,27.877-8.554,31.263-17.33,31.263-7.276,0-15.678-5.14-22.082-12.44-4.103-15.279-.645-45.25-.643-45.265Z" fill="#ccc8c0"/><path d="M525.58,699.734c-.456-1.836,3.219-2.184,3.96-8.029.746-5.857-3.957-.228-3.957-.228s-3.442,3.96-17.207,3.094c-12.681-.791-9.164-15.959-9.118-21.136.014-1.48.504-2.804.954-2.985.451-.178,1.698.489,2.471,1.745c1.916,3.094,3.62,8.121,4.553,11.167.436,1.406,1.489,1.603,2.007.22c1.69-4.6.453-10.888-.735-14.993-.403-1.417.496-2.879.98-4.086c12.529-31.356.353-46.287.353-46.172-.004.107-.857-.646-2-1.58-5.005-4.096-11.3-6.534-18.13-6.534-6.746,0-12.956,2.374-17.935,6.365-.855.685-1.544,1.294-1.844,1.54-12.914,23.559-1.215,45.172-.792,45.585.432.416.754.735.715.708-.033-.028-.508,1.061-.967,2.466-1.259,3.876-3.192,11.409-1.254,16.694.512,1.385,1.573,1.196,2.003-.213c1.033-3.364,3.016-9.163,5.167-12.076.873-1.19,1.901-.516,1.855.959-.275,8.971-1.436,17.19,11.884,27.78c11.51,9.15,20.992,5.99,31.862,5.318c1.476-.091,3.483-.537,4.94-.275.893.159,2.034.255,3.452.179c4.124-.236-2.756-3.678-3.217-5.513Z" fill="#e0dcd3"/><path d="M472.873,661.394l-3.734,2.462c-2.637,9.455-2.312,16.247-2.312,16.247c2.657,12.046,3.487,2.388,4.773-1.396c1.282-3.785,4.781-7.016,4.781-7.016l-3.508-10.297Z" fill="#f7f1e6"/><path d="M508.057,663.856l-4.378-2.462-4.111,10.297c0,0,4.099,3.23,5.606,7.016c1.506,3.784,2.477,13.442,5.591,1.396c0-.001.384-6.793-2.708-16.247Z" fill="#f7f1e6"/><g><path d="M483.256,639.734c0,2.279-1.847,4.128-4.128,4.128-2.278,0-4.126-1.849-4.126-4.128s1.848-4.126,4.126-4.126c2.281,0,4.128,1.847,4.128,4.126Z" fill="#313439"/><path d="M479.416,636.409c0,1.457-1.18,2.638-2.637,2.638-1.456,0-2.636-1.181-2.636-2.638c0-1.455,1.18-2.636,2.636-2.636c1.457,0,2.637,1.181,2.637,2.636Z" fill="#fff"/></g><g><path d="M496.895,639.734c0,2.279,1.848,4.128,4.126,4.128c2.28,0,4.128-1.849,4.128-4.128s-1.848-4.126-4.128-4.126c-2.278,0-4.126,1.847-4.126,4.126Z" fill="#313439"/><path d="M500.736,636.409c0,1.457,1.179,2.638,2.637,2.638c1.455,0,2.635-1.181,2.635-2.638c0-1.455-1.18-2.637-2.635-2.637-1.458.001-2.637,1.182-2.637,2.637Z" fill="#fff"/></g></g><g><path d="M360.397,500.214c0,13.996-11.344,25.341-25.342,25.341-13.996,0-25.341-11.345-25.341-25.341c0-13.995,11.345-25.342,25.341-25.342c13.999,0,25.342,11.347,25.342,25.342Z" fill="#8a603c"/><path d="M312.296,500.31c0,13.996-11.345,25.341-25.343,25.341-13.995,0-25.341-11.345-25.341-25.341s11.347-25.343,25.341-25.343c13.999.001,25.343,11.348,25.343,25.343Z" fill="#8a603c"/><g><g><path d="M305.737,520.961c-.006.008-.014.022-.018.027.005-.008.013-.019.015-.03-.001,0,.003,0,.003.003Z" fill="#07171b"/></g><g><path d="M305.701,520.961c.005.008.013.022.017.027-.004-.008-.012-.019-.015-.03c0,0-.002,0-.002.003Z" fill="#07171b"/></g></g><g><g><path d="M311.436,519.466c-.014,0-.027-.003-.038-.003.011,0,.024-.003.038-.003v.006Z" fill="#a84720"/></g><g><path d="M311.359,519.466c.014,0,.029-.003.04-.003-.011,0-.025-.003-.04-.003v.006Z" fill="#a84720"/></g></g><g><g><g><g><g><circle r="16.717" transform="translate(340.242 452.773)" fill="#af5b2b"/></g><g><path d="M330.605,452.773c0,5.322,4.313,9.638,9.636,9.638c5.322,0,9.637-4.315,9.637-9.638c0-5.322-4.315-9.637-9.637-9.637-5.323.001-9.636,4.315-9.636,9.637Z" fill="#4b190d"/></g></g><g><g><circle r="16.717" transform="translate(340.242 452.773)" fill="#8a603c"/></g><g><path d="M330.605,452.773c0,5.322,4.313,9.638,9.636,9.638c5.322,0,9.637-4.315,9.637-9.638c0-5.322-4.315-9.637-9.637-9.637-5.323.001-9.636,4.315-9.636,9.637Z" fill="#c2986b"/></g></g><g><path d="M311.513,443.565v48.301v10.933c.007.005.015.006.021.012l-.021,8.453v2.018h-.003l-.036,13.688" fill="#f39e2b"/></g><g><line x1="311.507" y1="528.514" x2="311.565" y2="502.81" fill="#f6f3cf"/></g></g><g><path d="M311.517,449.75c-.015,0-.028,0-.039,0c.011,0,.024,0,.039,0v0Z" fill="#4b190d"/></g><g><path d="M311.478,449.75c-.013,0-.027,0-.04,0v0c.013,0,.027,0,.04,0Z" fill="#4b190d"/></g></g><g><g><g><g><path d="M299.351,452.773c0,9.232-7.483,16.717-16.717,16.717-9.232,0-16.716-7.485-16.716-16.717s7.485-16.717,16.716-16.717c9.234.001,16.717,7.485,16.717,16.717Z" fill="#af5b2b"/></g><g><path d="M292.271,452.773c0,5.322-4.313,9.638-9.637,9.638-5.322,0-9.637-4.315-9.637-9.638c0-5.322,4.315-9.637,9.637-9.637c5.324.001,9.637,4.315,9.637,9.637Z" fill="#4b190d"/></g></g><g><g><path d="M299.351,452.773c0,9.232-7.483,16.717-16.717,16.717-9.232,0-16.716-7.485-16.716-16.717s7.485-16.717,16.716-16.717c9.234.001,16.717,7.485,16.717,16.717Z" fill="#8a603c"/></g><g><path d="M292.271,452.773c0,5.322-4.313,9.638-9.637,9.638-5.322,0-9.637-4.315-9.637-9.638c0-5.322,4.315-9.637,9.637-9.637c5.324.001,9.637,4.315,9.637,9.637Z" fill="#c2986b"/></g></g><g><path d="M311.363,443.565v48.301v10.933c-.007.005-.015.006-.021.012l.021,8.453v2.018h.004l.035,13.688" fill="#f39e2b"/></g><path d="M352.75,486.101c0-22.165-9.953-42.535-41.289-42.535l-.045.472v-.472c-31.337,0-41.29,20.37-41.29,42.535-2.333,9.506-6.411,9.237-4.116,21.382c2.294,12.145,15.301,16.639,24.791,16.897c0-.71,0-2.748,0-8.049c0-6.02,9.742-1.857,10.401-3.301c6.885,2.723,3.133-1.096,4.499,1.78c1.702-.946,3.635-1.528,5.715-1.528v-.21l.045.21c2.079,0,4.012.582,5.714,1.528c1.366-2.876-5.646,3.62,1.24.897.659,1.445,13.66-5.396,13.66.623c0,5.301,0,7.339,0,8.049c8.143,0,23.061.125,23.826-15.367.665-13.469-.818-13.406-3.151-22.911Z" fill="#8a603c"/><g><line x1="311.369" y1="528.514" x2="311.311" y2="502.81" fill="#f6f3cf"/></g></g><g><path d="M311.359,449.75c.014,0,.029,0,.04,0-.011,0-.026,0-.04,0v0Z" fill="#4b190d"/></g><g><path d="M311.398,449.75c.013,0,.026,0,.04,0v0c-.013,0-.027,0-.04,0Z" fill="#4b190d"/></g></g></g><g><g><path d="M321.208,479.264c0,3.215,2.606,5.818,5.82,5.818s5.82-2.604,5.82-5.818c0-3.215-2.606-5.82-5.82-5.82-3.213-.001-5.82,2.605-5.82,5.82Z" fill="#3b3e43"/></g><path d="M325.717,474.691c0,1.688,1.37,3.055,3.058,3.055s3.056-1.367,3.056-3.055c0-1.689-1.368-3.057-3.056-3.057-1.688.001-3.058,1.368-3.058,3.057Z" fill="#fff"/></g><g><g><path d="M303.994,479.264c0,3.215-2.604,5.818-5.818,5.818s-5.82-2.604-5.82-5.818c0-3.215,2.606-5.82,5.82-5.82c3.214-.001,5.818,2.605,5.818,5.82Z" fill="#3b3e43"/></g><path d="M299.485,474.691c0,1.688-1.368,3.055-3.056,3.055-1.689,0-3.056-1.367-3.056-3.055c0-1.689,1.368-3.057,3.056-3.057c1.688.001,3.056,1.368,3.056,3.057Z" fill="#fff"/></g><path d="M324.993,501.889c-3.612-1.141-6.448-2.576-13.555.922-7.108-3.498-9.942-2.063-13.554-.922-1.689.695-7.082,3.528-7.082,14.441c0,5.301-.12,8.517-.12,9.227c6.375,2.276,8.704,3.824,21.326,3.824c12.624,0,13.314-1.645,19.688-3.92c0-.709.38-3.83.38-9.131c0-10.913-5.395-13.746-7.083-14.441Z" fill="#f3dbbd"/><path d="M320.928,500.934c0,3.441-3.98,7.728-8.891,7.728s-8.892-4.286-8.892-7.728s3.982-6.232,8.892-6.232c4.911-.001,8.891,2.79,8.891,6.232Z" fill="#3b3e43"/><g><path d="M303.667,518.146c-2.183,0-4.602-1.075-7.22-3.219-.347-.286-.399-.8-.114-1.15.286-.35.801-.399,1.149-.114c3.06,2.505,5.698,3.361,7.836,2.55c4.261-1.621,5.522-9.246,5.533-9.324.073-.442.489-.748.935-.676s.75.488.678.936c-.055.35-1.432,8.637-6.566,10.589-.713.272-1.457.408-2.231.408Z" fill="#3b3e43"/><path d="M318.823,518.86c-.674,0-1.32-.123-1.938-.371-4.882-1.953-5.796-11.008-5.833-11.394-.043-.449.286-.848.733-.89.449-.045.85.286.89.735.227,2.346,1.531,8.719,4.819,10.033c1.802.722,4.101-.113,6.829-2.481.341-.296.856-.259,1.151.08.295.341.26.858-.081,1.152-2.406,2.089-4.606,3.136-6.57,3.136Z" fill="#3b3e43"/></g><path d="M317.83,499.068c-.207.825-1.423,1.225-2.712.896-1.289-.331-2.164-1.27-1.957-2.096.209-.824,1.422-1.225,2.71-.896c1.29.334,2.166,1.27,1.959,2.096Z" fill="#fff"/></g><g><g><path d="M503.9,448.115c-4.324,6.092-2.511,14.807,4.048,19.465c6.562,4.656,15.386,3.493,19.71-2.598c4.323-6.09,5.13-24.123,2.421-26.779-2.706-2.655-21.852,3.822-26.179,9.912Z" fill="#ea692b"/><path d="M507.162,452.435c-2.421,4.058-.842,9.459,3.528,12.063c4.369,2.608,9.874,1.434,12.298-2.624c2.417-4.058,5.715-17.918,2.606-19.495-3.11-1.575-16.011,5.996-18.432,10.056Z" fill="#f3dbbd"/></g><g><path d="M477.397,448.115c4.323,6.092,2.51,14.807-4.049,19.465-6.561,4.656-15.384,3.493-19.709-2.598-4.325-6.09-5.131-24.123-2.423-26.779c2.708-2.655,21.854,3.822,26.181,9.912Z" fill="#ea692b"/><path d="M474.134,452.435c2.421,4.058.843,9.459-3.528,12.063-4.369,2.608-9.873,1.434-12.296-2.624-2.418-4.058-5.718-17.918-2.608-19.495c3.111-1.575,16.013,5.996,18.432,10.056Z" fill="#f3dbbd"/></g><g><g><path d="M539.207,505.692c-.6-.436-1.379-.857-2.3-1.241.247.151.472.286.687.408.591.261,1.133.539,1.613.833Z" fill="#f6f3cf"/></g></g><g><g><path d="M539.207,505.692c-.48-.294-1.021-.572-1.613-.833.976.562,1.613.833,1.613.833Z" fill="#f6f3cf"/></g></g><g><g><path d="M442.931,504.451c-.921.385-1.699.806-2.302,1.241.482-.294,1.022-.572,1.614-.833.219-.122.445-.256.688-.408Z" fill="#f6f3cf"/></g></g><g><g><path d="M440.629,505.692c0,0,.641-.272,1.614-.833-.593.261-1.132.539-1.614.833Z" fill="#f6f3cf"/></g></g><g><g><path d="M462.871,504.522c3.63,1.212,6.717,2.654,9.344,4.173.005-.046.015-.095.021-.14-2.872-1.715-6.055-3.173-9.365-4.033Z" fill="none"/></g></g><g><g><path d="M489.884,452.991v.002c.012,0,.023-.002.036-.002-.013,0-.025,0-.036,0Z" fill="#e96332"/></g></g><g><g><path d="M489.957,452.991c-.013,0-.026,0-.037,0c.011,0,.024.002.037.002v-.002Z" fill="#a84720"/></g></g><path d="M527.782,490.731c0-20.82-16.857-37.698-37.668-37.738v-.002c-.013,0-.025.002-.039.002-.01,0-.022-.002-.035-.002v.002c-.016,0-.034,0-.052,0-.017,0-.035,0-.052,0v-.002c-.013,0-.023.002-.037.002-.013,0-.023-.002-.036-.002v.002c-20.811.04-37.669,16.918-37.669,37.738c0,.49-9.066,10.72-2.872,22.937c3.426,6.756,22.33,13.976,40.341,14.174c19.1.21,37.359-7.011,40.992-14.174c6.195-12.217-2.873-22.446-2.873-22.937Z" fill="#ea692b"/><g><g><path d="M499.429,484.742c0,3.194,2.594,5.786,5.788,5.786c3.195,0,5.788-2.592,5.788-5.786c0-3.196-2.593-5.789-5.788-5.789s-5.788,2.593-5.788,5.789Z" fill="#3b3e43"/></g><path d="M503.914,480.197c0,1.678,1.361,3.037,3.038,3.037c1.678,0,3.04-1.359,3.04-3.037c0-1.68-1.362-3.039-3.04-3.039-1.677,0-3.038,1.36-3.038,3.039Z" fill="#fff"/></g><g><g><path d="M482.316,484.742c0,3.194-2.591,5.786-5.785,5.786-3.196,0-5.786-2.592-5.786-5.786c0-3.196,2.59-5.789,5.786-5.789c3.195,0,5.785,2.593,5.785,5.789Z" fill="#3b3e43"/></g><path d="M477.834,480.197c0,1.678-1.36,3.037-3.038,3.037-1.679,0-3.039-1.359-3.039-3.037c0-1.68,1.36-3.039,3.039-3.039c1.678,0,3.038,1.36,3.038,3.039Z" fill="#fff"/></g><g><g clip-path="url(#e74gEH9uTYC454)"><path d="M517.794,516.774c0,8.791-12.595,15.917-28.131,15.917-15.534,0-28.13-7.126-28.13-15.917c0-8.79,12.596-15.918,28.13-15.918c15.536,0,28.131,7.128,28.131,15.918Z" fill="#f3dbbd"/><clipPath id="e74gEH9uTYC454"><use width="85.663147" height="74.855469" xlink:href="#e74gEH9uTYC7"/></clipPath></g></g><g><path d="M497.843,500.916c0,2.932-3.424,6.583-7.645,6.583s-7.644-3.651-7.644-6.583s3.423-5.307,7.644-5.307s7.645,2.375,7.645,5.307Z" fill="#3b3e43"/><g><path d="M482.229,516.469c-2.096,0-4.418-1.035-6.932-3.091-.337-.274-.387-.769-.111-1.103s.77-.385,1.104-.11c2.939,2.405,5.473,3.229,7.525,2.447c4.091-1.556,5.304-8.879,5.315-8.951.067-.43.469-.721.897-.652.427.07.719.472.651.898-.052.34-1.376,8.295-6.308,10.171-.684.261-1.397.391-2.141.391Z" fill="#3b3e43"/><path d="M496.783,517.155c-.645,0-1.268-.117-1.86-.354-4.689-1.877-5.566-10.574-5.603-10.942-.041-.432.273-.814.705-.854.43-.043.814.274.856.706.216,2.251,1.468,8.374,4.625,9.634c1.73.693,3.937-.107,6.559-2.38.329-.284.821-.249,1.106.078.282.327.247.821-.078,1.107-2.309,1.998-4.422,3.005-6.31,3.005Z" fill="#3b3e43"/></g><path d="M495.178,499.328c-.179.704-1.222,1.044-2.33.762-1.108-.279-1.86-1.079-1.684-1.783.178-.703,1.222-1.044,2.332-.763c1.106.282,1.861,1.08,1.682,1.784Z" fill="#fff"/></g><g><path d="M470.809,507.099c-.213,0-.427-.081-.591-.241-.112-.108-9.232-8.695-35.003-12.634-.462-.069-.778-.502-.708-.963s.493-.781.964-.707c26.427,4.036,35.555,12.727,35.93,13.095.334.326.338.862.012,1.195-.166.169-.386.255-.604.255Z" fill="#3d342f"/><path d="M469.285,510.495c-.143,0-.286-.035-.417-.11-.134-.074-11.129-6.077-37.061-3.382-.47.049-.88-.288-.928-.754-.049-.463.287-.879.753-.927c26.588-2.77,37.617,3.332,38.073,3.594.404.232.546.749.314,1.155-.155.272-.441.424-.734.424Z" fill="#3d342f"/><path d="M431.441,519.719c-.352,0-.681-.221-.8-.571-.152-.442.083-.924.525-1.074c25.288-8.661,37.405-5.188,37.907-5.037.447.135.7.608.565,1.054-.133.447-.605.697-1.052.565v0c-.12-.034-12.179-3.44-36.872,5.018-.089.029-.183.045-.273.045Z" fill="#3d342f"/></g><g><path d="M508.31,508.406c-.219,0-.439-.085-.603-.254-.328-.333-.323-.869.011-1.195.376-.367,9.502-9.059,35.929-13.095.47-.072.893.246.964.707s-.246.894-.707.964c-25.893,3.954-34.914,12.545-35.002,12.631-.165.162-.379.242-.592.242Z" fill="#3d342f"/><path d="M509.835,511.803c-.295,0-.58-.154-.736-.427-.23-.406-.09-.921.314-1.152.456-.261,11.482-6.361,38.072-3.593.464.048.802.464.753.928-.048.463-.459.803-.929.753-25.963-2.7-36.95,3.32-37.057,3.381-.132.075-.275.11-.417.11Z" fill="#3d342f"/><path d="M547.678,521.027c-.09,0-.183-.015-.273-.045-24.691-8.457-36.752-5.053-36.872-5.018-.445.131-.919-.121-1.052-.567-.134-.447.117-.918.564-1.052.503-.152,12.619-3.624,37.908,5.036.441.151.677.632.524,1.073-.12.353-.447.573-.799.573Z" fill="#3d342f"/></g></g><g><g><g><g><path d="M286.402,285.565c-1.331-1.405-3.105-2.992-4.618-3.855l-.499-.278c-.085.349-.288,1.041-.44,1.851-.266,1.685-.238,3.419-.196,5.789.048,2.344.08,5.2-.146,8.127-.217,2.935-.665,5.919-1.284,8.798-1.245,5.776-3.099,11.172-5.164,16.321l-.122.306c-2.611,6.504-9.998,9.661-16.5,7.054-6.503-2.607-9.661-9.995-7.053-16.501.443-1.105,1.065-2.161,1.758-3.063c2.777-3.573,5.284-7.198,7.27-10.873.995-1.844,1.85-3.689,2.585-5.652.747-1.972,1.339-4.079,2.017-6.685.673-2.572,1.557-5.794,3.067-8.785.735-1.519,1.595-3.108,2.965-4.791.689-.836,1.525-1.7,2.606-2.504c1.073-.795,2.41-1.526,3.916-1.923c1.495-.414,3.067-.467,4.417-.264c1.364.2,2.511.617,3.495,1.084c1.95.955,3.307,2.099,4.485,3.229c1.164,1.141,2.125,2.303,2.997,3.483.885,1.212,1.606,2.317,2.413,3.721c1.327,2.309.532,5.254-1.775,6.582-1.97,1.132-4.408.72-5.903-.863l-.291-.308Z" fill="#7b5735"/></g></g><g><g><path d="M335.608,285.565c1.331-1.405,3.106-2.992,4.617-3.855l.499-.278c.085.349.287,1.041.44,1.851.268,1.685.24,3.419.196,5.789-.05,2.344-.08,5.2.146,8.127.217,2.935.665,5.919,1.284,8.798c1.244,5.776,3.099,11.172,5.164,16.321l.124.306c2.609,6.504,9.997,9.661,16.498,7.054c6.505-2.607,9.662-9.995,7.054-16.501-.444-1.105-1.065-2.161-1.758-3.063-2.777-3.573-5.282-7.198-7.27-10.873-.993-1.844-1.85-3.689-2.587-5.652-.743-1.972-1.337-4.079-2.016-6.685-.671-2.572-1.555-5.794-3.065-8.785-.735-1.519-1.592-3.108-2.965-4.791-.689-.836-1.524-1.7-2.603-2.504-1.075-.795-2.412-1.526-3.918-1.923-1.495-.414-3.067-.467-4.417-.264-1.364.2-2.51.617-3.494,1.084-1.95.955-3.309,2.099-4.484,3.229-1.164,1.141-2.128,2.303-2.999,3.483-.887,1.212-1.607,2.317-2.414,3.721-1.327,2.309-.533,5.254,1.775,6.582c1.969,1.132,4.408.72,5.902-.863l.291-.308Z" fill="#7b5735"/></g></g></g><g><g><path d="M286.665,323.469c3.348,1.116,6.195,2.446,8.617,3.848.007-.044.015-.088.022-.129-2.649-1.584-5.586-2.926-8.639-3.719Z" fill="none"/></g></g><g><g><path d="M311.581,275.935v0c.012.001.024,0,.034,0-.01,0-.022,0-.034,0Z" fill="#e96332"/></g></g><g><g><path d="M311.65,275.935c-.013,0-.024,0-.036,0c.012,0,.024,0,.036,0v0Z" fill="#a84720"/></g></g><path d="M346.541,310.747c0-19.204-15.551-34.775-34.746-34.811v-.002c-.012,0-.023.001-.035.001-.011,0-.021-.001-.032-.001v.002c-.015,0-.034,0-.049,0-.016,0-.032,0-.048,0v-.002c-.011,0-.022.001-.034.001-.011,0-.021-.001-.033-.001v.002c-19.195.035-34.746,15.607-34.746,34.811c0,.452-8.365,9.888-2.649,21.157c3.159,6.232,20.597,17.72,37.212,17.902c17.616.193,34.46-11.293,37.811-17.902c5.713-11.269-2.651-20.705-2.651-21.157Z" transform="translate(.000001 0)" fill="#8a603c"/><g><g><path d="M320.388,305.223c0,2.946,2.392,5.337,5.338,5.337c2.948,0,5.339-2.391,5.339-5.337c0-2.949-2.391-5.34-5.339-5.34-2.947,0-5.338,2.39-5.338,5.34Z" fill="#3b3e43"/></g><path d="M324.523,301.029c0,1.549,1.256,2.802,2.804,2.802c1.546,0,2.803-1.253,2.803-2.802s-1.256-2.804-2.803-2.804c-1.547.001-2.804,1.255-2.804,2.804Z" fill="#fff"/></g><g><g><path d="M304.601,305.223c0,2.946-2.387,5.337-5.335,5.337-2.947,0-5.338-2.391-5.338-5.337c0-2.949,2.391-5.34,5.338-5.34c2.948,0,5.335,2.39,5.335,5.34Z" fill="#3b3e43"/></g><path d="M300.467,301.029c0,1.549-1.254,2.802-2.802,2.802-1.55,0-2.802-1.253-2.802-2.802s1.252-2.804,2.802-2.804c1.547.001,2.802,1.255,2.802,2.804Z" fill="#fff"/></g><g><g clip-path="url(#e74gEH9uTYC499)"><path d="M337.328,334.77c0,8.109-11.617,19.51-25.948,19.51-14.33,0-25.948-11.4-25.948-19.51c0-8.108,11.618-14.683,25.948-14.683s25.948,6.574,25.948,14.683Z" fill="#f3dbbd"/><clipPath id="e74gEH9uTYC499"><use width="79.017578" height="73.874451" xlink:href="#e74gEH9uTYC8" transform="translate(.000001 0)"/></clipPath></g></g><g><path d="M318.923,320.142c0,2.705-3.156,6.071-7.05,6.071-3.896,0-7.052-3.366-7.052-6.071c0-2.704,3.156-4.897,7.052-4.897c3.894,0,7.05,2.193,7.05,4.897Z" fill="#3b3e43"/><g><path d="M304.522,334.487c-1.935,0-4.076-.954-6.396-2.852-.31-.252-.355-.708-.1-1.018.252-.309.708-.354,1.016-.101c2.713,2.218,5.048,2.978,6.942,2.259c3.774-1.437,4.893-8.192,4.904-8.259.06-.396.432-.663.828-.601.394.064.663.435.6.828-.05.312-1.27,7.651-5.817,9.382-.633.242-1.292.362-1.977.362Z" fill="#3b3e43"/><path d="M317.947,335.121c-.596,0-1.169-.108-1.717-.327-4.325-1.731-5.135-9.753-5.168-10.094-.039-.398.254-.751.651-.789.397-.039.751.254.789.652.2,2.076,1.355,7.723,4.267,8.887c1.597.64,3.631-.101,6.05-2.197.301-.262.758-.228,1.02.073.26.302.23.759-.073,1.021-2.129,1.845-4.08,2.774-5.819,2.774Z" fill="#3b3e43"/></g><path d="M316.465,318.677c-.163.649-1.127.962-2.149.703-1.022-.26-1.717-.996-1.553-1.646.165-.648,1.128-.963,2.151-.703c1.021.261,1.716.995,1.551,1.646Z" fill="#fff"/></g><g><path d="M293.987,325.666c-.152,0-.305-.057-.423-.171-.082-.08-8.507-8.053-32.383-11.7-.33-.051-.556-.358-.505-.688.05-.329.365-.551.688-.505c24.321,3.716,32.702,11.692,33.045,12.029.237.234.242.615.009.854-.117.119-.273.181-.431.181Z" fill="#3d342f"/><path d="M292.581,328.8c-.102,0-.204-.025-.299-.079-.099-.056-10.272-5.643-34.289-3.14-.322.031-.629-.205-.662-.538-.035-.331.206-.629.537-.663c24.476-2.551,34.594,3.054,35.013,3.293.288.166.389.534.224.822-.11.195-.315.305-.524.305Z" fill="#3d342f"/><path d="M257.674,337.309c-.252,0-.486-.157-.571-.408-.108-.314.06-.658.374-.766c23.275-7.973,34.396-4.786,34.859-4.645.318.096.499.432.403.751-.097.318-.427.5-.752.404-.109-.033-11.272-3.194-34.119,4.631-.064.022-.13.033-.194.033Z" fill="#3d342f"/></g><g><path d="M328.579,326.873c-.157,0-.314-.06-.432-.182-.232-.238-.229-.619.009-.853.345-.338,8.724-8.314,33.046-12.03.33-.048.636.176.688.505.05.33-.176.638-.505.688-23.876,3.648-32.301,11.621-32.383,11.7-.119.114-.272.172-.423.172Z" fill="#3d342f"/><path d="M329.983,330.007c-.208,0-.413-.108-.523-.304-.167-.288-.065-.657.224-.823.419-.238,10.543-5.844,35.011-3.292.332.034.574.331.539.662-.035.332-.333.57-.663.537-24.088-2.506-34.189,3.084-34.288,3.14-.094.054-.197.08-.3.08Z" fill="#3d342f"/><path d="M364.894,338.516c-.066,0-.131-.011-.198-.032-22.843-7.825-34.007-4.664-34.118-4.631-.323.097-.656-.087-.751-.405-.096-.318.085-.654.403-.751.463-.14,11.581-3.327,34.858,4.646.315.106.484.45.375.766-.085.249-.32.407-.569.407Z" fill="#3d342f"/></g></g><g><g><path d="M-0.976,768.06c-.705.294-1.299.616-1.76.948.369-.225.781-.438,1.234-.636.167-.094.34-.196.526-.312Z" fill="#f6f3cf"/></g></g><g><g><path d="M-2.735,769.008c0,0,.49-.207,1.234-.636-.453.198-.865.411-1.234.636Z" fill="#f6f3cf"/></g></g><g><g><g><g><path d="M146.6,297.286c7.164-29.051,30.789-39.22,30.789-39.22s16.889,44.088-15.394,54.602L146.6,297.286Z" fill="#d45f26"/></g></g><g><g><g><path d="M150.047,299.958c9.227-27.595,24.007-32.407,24.007-32.407s12.772,26.35-15.287,42.423l-8.72-10.016Z" fill="#f3dbbd"/></g></g></g><g><g><path d="M118.803,297.286c-7.165-29.051-30.791-39.22-30.791-39.22s-16.887,44.088,15.395,54.602l15.396-15.382Z" fill="#d45f26"/></g></g><g><g><g><path d="M115.356,299.958c-9.23-27.595-24.009-32.407-24.009-32.407s-12.771,26.35,15.288,42.423l8.721-10.016Z" fill="#f3dbbd"/></g></g></g></g><g><g><path d="M132.684,289.767v.001c.012,0,.024-.001.035-.001-.011,0-.023,0-.035,0Z" fill="#e96332"/></g></g><g><g><path d="M132.754,289.767c-.013,0-.025,0-.035,0c.01,0,.022.001.035.001v-.001Z" fill="#a84720"/></g></g><path d="M168.377,325.309c0-19.607-15.876-35.504-35.476-35.539v-.003c-.012,0-.023.001-.034.001-.012,0-.022-.001-.034-.001v.003c-.016,0-.033,0-.049,0s-.034,0-.05,0v-.003c-.013,0-.023.001-.034.001-.012,0-.024-.001-.035-.001v.003c-19.599.035-35.476,15.933-35.476,35.539c0,.464-8.54,10.097-2.705,21.603c3.227,6.362,21.03,13.161,37.994,13.348c17.985.198,35.182-6.602,38.604-13.348c5.835-11.506-2.705-21.139-2.705-21.603Z" fill="#ea692b"/><g><g><path d="M141.675,319.669c0,3.009,2.442,5.449,5.452,5.449c3.007,0,5.45-2.441,5.45-5.449c0-3.01-2.442-5.451-5.45-5.451-3.01,0-5.452,2.442-5.452,5.451Z" fill="#3b3e43"/></g><path d="M145.897,315.388c0,1.581,1.284,2.86,2.864,2.86s2.861-1.279,2.861-2.86c0-1.582-1.281-2.861-2.861-2.861s-2.864,1.279-2.864,2.861Z" fill="#fff"/></g><g><g><path d="M125.558,319.669c0,3.009-2.438,5.449-5.448,5.449-3.009,0-5.45-2.441-5.45-5.449c0-3.01,2.44-5.451,5.45-5.451s5.448,2.442,5.448,5.451Z" fill="#3b3e43"/></g><path d="M121.337,315.388c0,1.581-1.282,2.86-2.862,2.86-1.581,0-2.861-1.279-2.861-2.86c0-1.582,1.279-2.861,2.861-2.861c1.58,0,2.862,1.279,2.862,2.861Z" fill="#fff"/></g><path d="M168.377,325.309c0-19.607-15.876-35.504-35.476-35.539v-.003c-.012,0-.023.001-.034.001-.012,0-.022-.001-.034-.001v.003c-.016,0-.033,0-.049,0s-.034,0-.05,0v-.003c-.013,0-.023.001-.034.001-.012,0-.024-.001-.035-.001v.003c-19.599.035-35.476,15.933-35.476,35.539c0,.464-8.54,10.097-2.705,21.603c3.227,6.362,21.03,13.161,37.994,13.348c17.985.198,35.182-6.602,38.604-13.348c5.835-11.506-2.705-21.139-2.705-21.603Z" fill="none"/><g><path d="M142.003,343.669c0,3.353-3.913,7.526-8.738,7.526-4.828,0-8.738-4.174-8.738-7.526c0-3.351,3.91-6.068,8.738-6.068c4.825,0,8.738,2.718,8.738,6.068Z" fill="#3b3e43"/><path d="M138.957,341.855c-.203.805-1.396,1.193-2.663.872-1.266-.321-2.128-1.234-1.926-2.04.205-.805,1.399-1.193,2.665-.872c1.267.323,2.129,1.234,1.924,2.04Z" fill="#fff"/></g><g><g clip-path="url(#e74gEH9uTYC560)"><path d="M125.771,363.582c-2.851,3.657-13.92-.194-24.726-8.609-10.806-8.413-17.257-18.202-14.407-21.862c2.849-3.659,13.922.196,24.725,8.608c10.809,8.414,17.258,18.2,14.408,21.863Z" fill="#f3dbbd"/><path d="M139.979,362.113c2.835,3.458,14.146-.363,25.263-8.536c11.117-8.17,17.831-17.598,14.997-21.058-2.835-3.457-14.148.365-25.265,8.535-11.114,8.173-17.829,17.599-14.995,21.059Z" fill="#f3dbbd"/><clipPath id="e74gEH9uTYC560"><use width="80.677078" height="70.497192" xlink:href="#e74gEH9uTYC9"/></clipPath></g></g></g><g><g><path d="M296.153,102.232c-1.528-2.709-5.972-9.9-11.362-12.194-6.554-2.79-11.646,20.526-3.792,27.041-.092.165-.173.338-.264.504c6.864-2.815,12.159-8.723,15.418-15.351Zm-11.632,9.674c-4.918-3.739-.668-15.615.828-14.367c1.023.853,3.626,5.451,5.274,8.479-2.257,1.718-4.307,3.694-6.102,5.888Z" fill="#8a603c"/><path d="M284.166,113.264c2.131-2.605,4.565-4.953,7.248-6.993-1.959-3.598-5.048-9.059-6.266-10.072-1.778-1.483-6.825,12.623-.982,17.065Z" fill="#3b3e43"/></g><g><path d="M345.228,117.582c-.09-.166-.171-.339-.264-.504c7.855-6.515,2.764-29.831-3.791-27.041-5.39,2.294-9.834,9.485-11.362,12.194c3.259,6.629,8.555,12.537,15.417,15.351Zm-9.887-11.563c1.648-3.029,4.251-7.627,5.274-8.479c1.496-1.249,5.746,10.627.828,14.367-1.795-2.195-3.845-4.171-6.102-5.888Z" fill="#8a603c"/><path d="M341.799,113.264c-2.131-2.605-4.566-4.953-7.247-6.993c1.958-3.598,5.048-9.059,6.265-10.072c1.777-1.483,6.824,12.623.982,17.065Z" fill="#3b3e43"/></g><g><g><path d="M283.238,149.614c3.776,1.261,6.987,2.76,9.72,4.34.008-.049.018-.098.023-.146-2.988-1.784-6.3-3.299-9.743-4.194Z" fill="none"/></g></g><g><g><path d="M311.342,96.001v.002c.013,0,.026-.002.038-.002-.012,0-.026,0-.038,0Z" fill="#e96332"/></g></g><g><g><path d="M311.418,96.001c-.014,0-.026,0-.038,0c.012,0,.024.002.038.002v-.002Z" fill="#a84720"/></g></g><path d="M350.772,135.266c0-21.66-17.54-39.223-39.19-39.262v-.003c-.013,0-.026.002-.04.002-.012,0-.022-.002-.035-.002v.003c-.019,0-.039,0-.057,0-.016,0-.035,0-.054,0v-.003c-.013,0-.025.002-.037.002-.014,0-.024-.002-.038-.002v.003c-21.65.04-39.19,17.602-39.19,39.262c0,.511-9.435,11.153-2.987,23.864c3.563,7.03,22.61,6.384,41.35,6.59c19.869.218,39.487.864,43.267-6.59c6.445-12.711-2.989-23.354-2.989-23.864Z" fill="#8a603c"/><g><path d="M317.524,151.415c0,14.024-11.369,25.391-25.393,25.391-14.023,0-25.393-11.368-25.393-25.391c0-14.024,11.369-25.392,25.393-25.392c14.024-.001,25.393,11.368,25.393,25.392Z" fill="#8a603c"/><path d="M357.426,152.404c0,14.023-11.368,25.392-25.393,25.392-14.023,0-25.393-11.369-25.393-25.392c0-14.024,11.369-25.393,25.393-25.393c14.025.001,25.393,11.369,25.393,25.393Z" fill="#8a603c"/></g><g><g><path d="M291.497,152.093c-.172,0-.344-.064-.477-.193-.093-.09-9.596-9.083-36.525-13.197-.372-.057-.626-.404-.57-.776.058-.372.413-.622.776-.57c27.433,4.19,36.883,13.188,37.271,13.568.268.264.272.693.01.962-.132.137-.309.206-.485.206Z" fill="#3d342f"/><path d="M289.911,155.627c-.115,0-.23-.028-.337-.088-.111-.064-11.585-6.365-38.674-3.542-.363.036-.709-.231-.748-.606-.039-.373.234-.709.607-.747c27.605-2.878,39.016,3.443,39.49,3.713.325.187.438.602.252.928-.123.22-.355.342-.59.342Z" fill="#3d342f"/><path d="M250.539,165.225c-.283,0-.549-.178-.645-.46-.121-.355.068-.743.423-.865c26.252-8.992,38.794-5.398,39.316-5.238.358.108.564.487.454.847-.107.36-.48.564-.847.456-.124-.038-12.713-3.603-38.481,5.223-.073.025-.148.037-.22.037Z" fill="#3d342f"/></g><g><path d="M319.623,145.862c0,3.051-3.561,6.849-7.954,6.849-4.392,0-7.951-3.798-7.951-6.849c0-3.05,3.559-5.522,7.951-5.522s7.954,2.472,7.954,5.522Z" fill="#3b3e43"/><g><path d="M303.379,162.042c-2.181,0-4.597-1.076-7.213-3.216-.35-.284-.401-.799-.114-1.148.284-.348.801-.4,1.147-.114c3.059,2.502,5.692,3.359,7.829,2.547c4.257-1.62,5.52-9.239,5.53-9.315.069-.445.486-.748.935-.677.444.072.748.49.678.934-.057.352-1.433,8.629-6.561,10.581-.715.273-1.458.408-2.231.408Z" fill="#3b3e43"/><path d="M318.52,162.758c-.672,0-1.318-.122-1.935-.37-4.879-1.952-5.792-10.999-5.83-11.384-.043-.449.287-.847.734-.889.448-.044.848.286.892.735.224,2.342,1.526,8.711,4.813,10.023c1.801.722,4.096-.113,6.823-2.478.339-.295.854-.258,1.151.083.293.34.258.856-.083,1.151-2.403,2.081-4.602,3.129-6.565,3.129Z" fill="#3b3e43"/></g><path d="M316.85,144.21c-.185.732-1.271,1.086-2.423.794-1.153-.293-1.937-1.124-1.753-1.856.187-.732,1.274-1.087,2.426-.794c1.152.294,1.935,1.123,1.75,1.856Z" fill="#fff"/></g><g><path d="M330.513,153.454c-.177,0-.354-.068-.486-.205-.262-.268-.259-.698.01-.961.39-.381,9.841-9.378,37.271-13.569.372-.054.719.198.776.57.057.371-.198.719-.57.776-26.93,4.114-36.432,13.107-36.525,13.197-.133.128-.304.192-.476.192Z" fill="#3d342f"/><path d="M332.098,156.989c-.235,0-.466-.123-.591-.343-.187-.325-.074-.741.253-.928.472-.27,11.891-6.591,39.49-3.713.373.038.645.374.605.747-.037.375-.373.643-.746.606-27.17-2.826-38.563,3.478-38.675,3.542-.105.061-.222.089-.336.089Z" fill="#3d342f"/><path d="M371.472,166.586c-.075,0-.148-.012-.222-.036-25.766-8.826-38.357-5.26-38.483-5.223-.364.109-.738-.098-.846-.458-.108-.359.095-.738.454-.847.522-.157,13.063-3.753,39.317,5.239.354.121.544.509.422.865-.096.283-.36.46-.642.46Z" fill="#3d342f"/></g></g><path d="M303.131,117.64c-5.059-1.474-12.506-1.621-16.726,8.128-4.219,9.747-3.696,17.918,0,19.705c3.696,1.788,21.826-4.34,23.358-11.235c1.533-6.894-.495-14.81-6.632-16.598Z" fill="#c2986b"/><path d="M315.535,134.238c1.533,6.895,19.664,13.023,23.359,11.235c3.697-1.787,4.219-9.959,0-19.706-4.219-9.749-11.667-9.601-16.726-8.127-6.135,1.788-8.164,9.705-6.633,16.598Z" fill="#c2986b"/><g><g><g><path d="M321.273,129.035c0,3.323,2.696,6.019,6.021,6.019c3.324,0,6.022-2.696,6.022-6.019c0-3.326-2.697-6.022-6.022-6.022-3.324,0-6.021,2.697-6.021,6.022Z" fill="#3b3e43"/></g><path d="M325.938,124.305c0,1.747,1.417,3.16,3.162,3.16c1.746,0,3.162-1.413,3.162-3.16s-1.416-3.162-3.162-3.162c-1.745.001-3.162,1.416-3.162,3.162Z" fill="#fff"/></g><g><g><path d="M303.468,129.035c0,3.323-2.691,6.019-6.017,6.019s-6.021-2.696-6.021-6.019c0-3.326,2.695-6.022,6.021-6.022s6.017,2.697,6.017,6.022Z" fill="#3b3e43"/></g><path d="M298.805,124.305c0,1.747-1.415,3.16-3.16,3.16-1.746,0-3.16-1.413-3.16-3.16s1.414-3.162,3.16-3.162c1.745.001,3.16,1.416,3.16,3.162Z" fill="#fff"/></g></g></g></g><g transform="matrix(1.206781 0 0 1.265953-515.791667-758.197074)"><path d="M469.975,618.063c0-.056-.738-1.051-1.813-2.058-2.188-2.047-6.33-5.073-12.316-5.961-9.286-1.393-24.491,7.213-26.561,35.094-2.061,27.878,9.188,30.629,17.964,30.629c7.277,0,15.679-5.139,22.081-12.44c4.103-15.277.645-45.248.645-45.264Z" fill="#ccc8c0" stroke="#000"/><path d="M509.767,618.393c0-.056.736-1.05,1.811-2.058c2.186-2.047,6.33-5.073,12.314-5.962c9.288-1.393,23.86,6.581,25.93,34.462c2.063,27.877-8.554,31.263-17.33,31.263-7.276,0-15.678-5.14-22.082-12.44-4.103-15.279-.645-45.25-.643-45.265Z" fill="#ccc8c0" stroke="#000"/><path d="M525.58,699.734c-.456-1.836,3.219-2.184,3.96-8.029.746-5.857-3.957-.228-3.957-.228s-3.442,3.96-17.207,3.094c-12.681-.791-9.164-15.959-9.118-21.136.014-1.48.504-2.804.954-2.985.451-.178,1.698.489,2.471,1.745c1.916,3.094,3.62,8.121,4.553,11.167.436,1.406,1.489,1.603,2.007.22c1.69-4.6.453-10.888-.735-14.993-.403-1.417.496-2.879.98-4.086c12.529-31.356.353-46.287.353-46.172-.004.107-.857-.646-2-1.58-5.005-4.096-11.3-6.534-18.13-6.534-6.746,0-12.956,2.374-17.935,6.365-.855.685-1.544,1.294-1.844,1.54-12.914,23.559-1.215,45.172-.792,45.585.432.416.754.735.715.708-.033-.028-.508,1.061-.967,2.466-1.259,3.876-3.192,11.409-1.254,16.694.512,1.385,1.573,1.196,2.003-.213c1.033-3.364,3.016-9.163,5.167-12.076.873-1.19,1.901-.516,1.855.959-.275,8.971-1.436,17.19,11.884,27.78c11.51,9.15,20.992,5.99,31.862,5.318c1.476-.091,3.483-.537,4.94-.275.893.159,2.034.255,3.452.179c4.124-.236-2.756-3.678-3.217-5.513Z" fill="#e0dcd3" stroke="#000"/><path d="M472.873,661.394l-3.734,2.462c-2.637,9.455-2.312,16.247-2.312,16.247c2.657,12.046,3.487,2.388,4.773-1.396c1.282-3.785,4.781-7.016,4.781-7.016l-3.508-10.297Z" fill="#f7f1e6" stroke="#000"/><path d="M508.057,663.856l-4.378-2.462-4.111,10.297c0,0,4.099,3.23,5.606,7.016c1.506,3.784,2.477,13.442,5.591,1.396c0-.001.384-6.793-2.708-16.247Z" fill="#f7f1e6" stroke="#000"/><g><path d="M483.256,639.734c0,2.279-1.847,4.128-4.128,4.128-2.278,0-4.126-1.849-4.126-4.128s1.848-4.126,4.126-4.126c2.281,0,4.128,1.847,4.128,4.126Z" fill="#313439"/><path d="M479.416,636.409c0,1.457-1.18,2.638-2.637,2.638-1.456,0-2.636-1.181-2.636-2.638c0-1.455,1.18-2.636,2.636-2.636c1.457,0,2.637,1.181,2.637,2.636Z" fill="#fff"/></g><g><path d="M496.895,639.734c0,2.279,1.848,4.128,4.126,4.128c2.28,0,4.128-1.849,4.128-4.128s-1.848-4.126-4.128-4.126c-2.278,0-4.126,1.847-4.126,4.126Z" fill="#313439"/><path d="M500.736,636.409c0,1.457,1.179,2.638,2.637,2.638c1.455,0,2.635-1.181,2.635-2.638c0-1.455-1.18-2.637-2.635-2.637-1.458.001-2.637,1.182-2.637,2.637Z" fill="#fff"/></g></g></svg>
